<svg width="31" height="34" viewBox="0 0 31 34" fill="none" xmlns="http://www.w3.org/2000/svg">
<path d="M23.6875 33.9724C23.3341 34.0069 22.7345 34 22.3747 33.9724C17.1992 33.5586 10.6477 28.4483 7.18261 24.3793C4.00154 20.6414 -0.580706 13.1517 0.0630806 7.85515C0.334481 5.62757 2.27847 3.58619 3.78063 2.15171C6.15381 -0.124156 7.58024 1.29653 9.37275 3.21377C10.2879 4.19308 12.5727 6.40688 12.9893 7.59308C13.955 10.3241 11.3988 11.9103 10.0165 13.662C10.6035 15.0138 11.3988 16.2483 12.2824 17.3862C13.166 18.5241 14.1633 19.6138 15.1605 20.5241C16.1578 21.4345 17.3128 22.331 18.5372 22.9655C20.2919 21.3724 21.914 18.2552 24.5649 20.0207C25.5305 20.662 28.2067 23.7172 29.0398 24.7586C29.8729 25.8 30.3337 26.9448 29.8666 28.4C29.5195 29.4758 27.7459 31.3103 26.9443 32.1724C26.067 33.1172 24.9436 33.8483 23.6939 33.9793L23.6875 33.9724Z" fill="#46194F"/>
</svg>
