<svg width="39" height="40" viewBox="0 0 39 40" fill="none" xmlns="http://www.w3.org/2000/svg">
<path d="M38.52 2.76117C38.52 1.23622 37.2843 -3.33786e-06 35.76 -3.33786e-06C34.2357 -3.33786e-06 33 1.23622 33 2.76117C33 4.28612 34.2357 5.52231 35.76 5.52231C37.2843 5.52231 38.52 4.28612 38.52 2.76117Z" fill="#46194F"/>
<path d="M38.52 2.76117C38.52 1.23622 37.2843 -3.33786e-06 35.76 -3.33786e-06C34.2357 -3.33786e-06 33 1.23622 33 2.76117C33 4.28612 34.2357 5.52231 35.76 5.52231C37.2843 5.52231 38.52 4.28612 38.52 2.76117Z" fill="#46194F"/>
<path d="M34 4.508C21.2293 13.7149 10.0534 25.2363 1 38.5223" stroke="#46194F" stroke-width="2" stroke-miterlimit="10"/>
</svg>
