<svg width="39" height="40" viewBox="0 0 39 40" fill="none" xmlns="http://www.w3.org/2000/svg">
<path d="M2.28882e-05 36.7611C2.28882e-05 38.2861 1.23572 39.5223 2.76003 39.5223C4.28433 39.5223 5.52002 38.2861 5.52002 36.7611C5.52002 35.2362 4.28433 34 2.76003 34C1.23572 34 2.28882e-05 35.2362 2.28882e-05 36.7611Z" fill="#46194F"/>
<path d="M2.28882e-05 36.7611C2.28882e-05 38.2861 1.23572 39.5223 2.76003 39.5223C4.28433 39.5223 5.52002 38.2861 5.52002 36.7611C5.52002 35.2362 4.28433 34 2.76003 34C1.23572 34 2.28882e-05 35.2362 2.28882e-05 36.7611Z" fill="#46194F"/>
<path d="M4.52002 35.0143C17.2907 25.8074 28.4666 14.286 37.52 1" stroke="#46194F" stroke-width="2" stroke-miterlimit="10"/>
</svg>
