<svg width="40" height="39" viewBox="0 0 40 39" fill="none" xmlns="http://www.w3.org/2000/svg">
<path d="M36.7611 38.52C38.2861 38.52 39.5223 37.2843 39.5223 35.76C39.5223 34.2357 38.2861 33 36.7611 33C35.2362 33 34 34.2357 34 35.76C34 37.2843 35.2362 38.52 36.7611 38.52Z" fill="#46194F"/>
<path d="M36.7611 38.52C38.2861 38.52 39.5223 37.2843 39.5223 35.76C39.5223 34.2357 38.2861 33 36.7611 33C35.2362 33 34 34.2357 34 35.76C34 37.2843 35.2362 38.52 36.7611 38.52Z" fill="#46194F"/>
<path d="M35.0143 34C25.8074 21.2293 14.286 10.0534 1 1" stroke="#46194F" stroke-width="2" stroke-miterlimit="10"/>
</svg>
