<svg width="350" height="398" viewBox="0 0 350 398" fill="none" xmlns="http://www.w3.org/2000/svg">
<path d="M283.879 262.38C284.089 262.38 284.264 262.455 284.404 262.605C284.554 262.745 284.629 262.915 284.629 263.115C284.629 263.325 284.554 263.505 284.404 263.655C284.264 263.795 284.089 263.865 283.879 263.865C283.679 263.865 283.504 263.795 283.354 263.655C283.214 263.505 283.144 263.325 283.144 263.115C283.144 262.915 283.214 262.745 283.354 262.605C283.504 262.455 283.679 262.38 283.879 262.38ZM281.599 271.515C280.969 270.835 280.654 269.985 280.654 268.965C280.654 267.995 280.919 267.2 281.449 266.58C282.059 265.86 282.869 265.5 283.879 265.5C284.779 265.5 285.529 265.795 286.129 266.385C286.789 267.035 287.119 267.895 287.119 268.965C287.119 269.965 286.804 270.815 286.174 271.515H287.479V272.58H285.334H285.154C284.564 272.58 284.149 272.54 283.909 272.46H283.864C283.624 272.54 283.204 272.58 282.604 272.58H282.424H276.409C275.809 272.58 275.289 272.375 274.849 271.965C274.319 271.475 274.054 270.855 274.054 270.105V267.285L274.699 266.76H275.329V270.105C275.329 270.485 275.459 270.81 275.719 271.08C275.999 271.37 276.349 271.515 276.769 271.515H281.599ZM285.844 268.98C285.844 268.24 285.664 267.655 285.304 267.225C284.954 266.795 284.479 266.58 283.879 266.58C283.249 266.58 282.764 266.805 282.424 267.255C282.104 267.675 281.944 268.26 281.944 269.01C281.944 269.71 282.129 270.295 282.499 270.765C282.869 271.235 283.329 271.485 283.879 271.515C284.529 271.485 285.039 271.165 285.409 270.555C285.699 270.085 285.844 269.56 285.844 268.98ZM296.538 260.94C296.738 260.94 296.903 261.01 297.033 261.15C297.173 261.29 297.243 261.455 297.243 261.645C297.243 261.835 297.173 262 297.033 262.14C296.903 262.28 296.738 262.35 296.538 262.35C296.348 262.35 296.183 262.28 296.043 262.14C295.903 262 295.833 261.835 295.833 261.645C295.833 261.455 295.903 261.29 296.043 261.15C296.183 261.01 296.348 260.94 296.538 260.94ZM295.638 262.38C295.838 262.38 296.008 262.455 296.148 262.605C296.298 262.745 296.373 262.915 296.373 263.115C296.373 263.325 296.298 263.505 296.148 263.655C296.008 263.795 295.838 263.865 295.638 263.865C295.428 263.865 295.248 263.795 295.098 263.655C294.958 263.505 294.888 263.325 294.888 263.115C294.888 262.915 294.958 262.745 295.098 262.605C295.248 262.455 295.428 262.38 295.638 262.38ZM297.453 262.38C297.653 262.38 297.823 262.455 297.963 262.605C298.113 262.745 298.188 262.915 298.188 263.115C298.188 263.325 298.113 263.505 297.963 263.655C297.823 263.795 297.653 263.865 297.453 263.865C297.253 263.865 297.078 263.795 296.928 263.655C296.788 263.505 296.718 263.325 296.718 263.115C296.718 262.915 296.788 262.745 296.928 262.605C297.078 262.455 297.253 262.38 297.453 262.38ZM301.638 265.68V271.155C301.638 271.285 301.623 271.405 301.593 271.515H302.403V272.58H301.803L301.383 272.055H301.338C301.058 272.405 300.708 272.58 300.288 272.58H297.333L296.913 272.055H296.868C296.588 272.405 296.238 272.58 295.818 272.58H292.863L292.443 272.055H292.398C292.118 272.405 291.768 272.58 291.348 272.58H287.373V271.515H290.853C291.233 271.515 291.423 271.325 291.423 270.945V267.405H292.698V271.155C292.698 271.285 292.688 271.405 292.668 271.515H295.323C295.703 271.515 295.893 271.325 295.893 270.945V266.535H297.168V271.155C297.168 271.285 297.153 271.405 297.123 271.515H299.793C300.173 271.515 300.363 271.325 300.363 270.945V265.68H301.638ZM303.83 262.38C304.04 262.38 304.215 262.455 304.355 262.605C304.495 262.745 304.565 262.915 304.565 263.115C304.565 263.325 304.495 263.505 304.355 263.655C304.215 263.795 304.04 263.865 303.83 263.865C303.63 263.865 303.455 263.795 303.305 263.655C303.165 263.505 303.095 263.325 303.095 263.115C303.095 262.915 303.165 262.745 303.305 262.605C303.455 262.455 303.63 262.38 303.83 262.38ZM305.66 262.38C305.86 262.38 306.03 262.455 306.17 262.605C306.32 262.745 306.395 262.915 306.395 263.115C306.395 263.325 306.32 263.505 306.17 263.655C306.03 263.795 305.86 263.865 305.66 263.865C305.45 263.865 305.27 263.795 305.12 263.655C304.98 263.505 304.91 263.325 304.91 263.115C304.91 262.915 304.98 262.745 305.12 262.605C305.27 262.455 305.45 262.38 305.66 262.38ZM306.26 265.68V271.155C306.26 271.275 306.245 271.395 306.215 271.515H307.01V272.58H306.425L305.99 272.055H305.945C305.675 272.405 305.325 272.58 304.895 272.58H302.285V271.515H304.415C304.575 271.515 304.705 271.465 304.805 271.365C304.925 271.255 304.985 271.115 304.985 270.945V265.68H306.26ZM313.679 261.615V262.785L309.914 265.02C311.474 265.44 312.704 266.22 313.604 267.36C314.424 268.4 314.834 269.6 314.834 270.96C314.834 271.44 314.709 271.83 314.459 272.13C314.209 272.43 313.884 272.58 313.484 272.58H306.899V271.515H312.989C313.379 271.515 313.574 271.315 313.574 270.915C313.524 269.875 313.219 268.96 312.659 268.17C311.859 267.01 310.579 266.31 308.819 266.07C308.759 266.07 308.729 266.035 308.729 265.965V264.48L313.679 261.615ZM317.97 261.84V272.43L317.325 272.955H316.695V261.84H317.97ZM279.41 279.38C279.61 279.38 279.78 279.455 279.92 279.605C280.07 279.745 280.145 279.915 280.145 280.115C280.145 280.325 280.07 280.505 279.92 280.655C279.78 280.795 279.61 280.865 279.41 280.865C279.21 280.865 279.035 280.795 278.885 280.655C278.745 280.505 278.675 280.325 278.675 280.115C278.675 279.915 278.745 279.745 278.885 279.605C279.035 279.455 279.21 279.38 279.41 279.38ZM281.225 279.38C281.435 279.38 281.61 279.455 281.75 279.605C281.9 279.745 281.975 279.915 281.975 280.115C281.975 280.325 281.9 280.505 281.75 280.655C281.61 280.795 281.435 280.865 281.225 280.865C281.025 280.865 280.85 280.795 280.7 280.655C280.56 280.505 280.49 280.325 280.49 280.115C280.49 279.915 280.56 279.745 280.7 279.605C280.85 279.455 281.025 279.38 281.225 279.38ZM281.975 282.275V287C281.975 287.81 281.745 288.45 281.285 288.92C280.775 289.45 280.005 289.715 278.975 289.715C278.075 289.715 277.345 289.485 276.785 289.025C276.035 288.405 275.66 287.47 275.66 286.22C275.66 285.09 276.005 284.16 276.695 283.43C277.335 282.76 278.135 282.425 279.095 282.425C279.625 282.425 280.16 282.545 280.7 282.785L281.345 282.275H281.975ZM280.7 283.835C280.26 283.615 279.815 283.505 279.365 283.505C278.575 283.505 277.955 283.815 277.505 284.435C277.125 284.935 276.935 285.535 276.935 286.235C276.935 287.005 277.115 287.6 277.475 288.02C277.835 288.44 278.335 288.65 278.975 288.65C279.575 288.65 280.015 288.495 280.295 288.185C280.565 287.885 280.7 287.485 280.7 286.985V283.835ZM287.095 282.68V289.445C287.095 290.555 286.78 291.43 286.15 292.07C285.66 292.57 285 292.9 284.17 293.06C283.85 293.12 283.5 293.15 283.12 293.15C282.88 293.15 282.65 293.145 282.43 293.135L281.935 292.52V292.04C282.225 292.08 282.54 292.1 282.88 292.1C284.84 292.1 285.82 291.2 285.82 289.4V282.68H287.095ZM290.46 278.84V287.945C290.46 288.105 290.51 288.24 290.61 288.35C290.72 288.46 290.86 288.515 291.03 288.515H291.225V289.58H290.535C290.215 289.58 289.935 289.475 289.695 289.265C289.355 288.975 289.185 288.605 289.185 288.155V278.84H290.46ZM295.098 282.68V288.155C295.098 288.275 295.083 288.395 295.053 288.515H295.848V289.58H295.263L294.828 289.055H294.783C294.513 289.405 294.163 289.58 293.733 289.58H291.123V288.515H293.253C293.413 288.515 293.543 288.465 293.643 288.365C293.763 288.255 293.823 288.115 293.823 287.945V282.68H295.098ZM292.533 291.14C292.733 291.14 292.903 291.21 293.043 291.35C293.193 291.5 293.268 291.675 293.268 291.875C293.268 292.085 293.193 292.26 293.043 292.4C292.903 292.55 292.733 292.625 292.533 292.625C292.333 292.625 292.158 292.55 292.008 292.4C291.868 292.26 291.798 292.085 291.798 291.875C291.798 291.675 291.868 291.5 292.008 291.35C292.158 291.21 292.333 291.14 292.533 291.14ZM294.348 291.14C294.558 291.14 294.733 291.21 294.873 291.35C295.023 291.5 295.098 291.675 295.098 291.875C295.098 292.085 295.023 292.26 294.873 292.4C294.733 292.55 294.558 292.625 294.348 292.625C294.148 292.625 293.973 292.55 293.823 292.4C293.683 292.26 293.613 292.085 293.613 291.875C293.613 291.675 293.683 291.5 293.823 291.35C293.973 291.21 294.148 291.14 294.348 291.14ZM310.002 282.68V288.155C310.002 288.285 309.987 288.405 309.957 288.515H310.767V289.58H310.167L309.747 289.055H309.702C309.422 289.405 309.072 289.58 308.652 289.58H305.697L305.277 289.055H305.232C304.952 289.405 304.602 289.58 304.182 289.58H301.227L300.807 289.055H300.762C300.482 289.405 300.132 289.58 299.712 289.58H295.737V288.515H299.217C299.597 288.515 299.787 288.325 299.787 287.945V284.405H301.062V288.155C301.062 288.285 301.052 288.405 301.032 288.515H303.687C304.067 288.515 304.257 288.325 304.257 287.945V283.535H305.532V288.155C305.532 288.285 305.517 288.405 305.487 288.515H308.157C308.537 288.515 308.727 288.325 308.727 287.945V282.68H310.002ZM314.624 278.84V288.155C314.624 288.545 314.494 288.875 314.234 289.145C313.964 289.435 313.639 289.58 313.259 289.58H310.649V288.515H312.779C312.969 288.515 313.114 288.45 313.214 288.32C313.304 288.21 313.349 288.085 313.349 287.945V278.84H314.624ZM317.97 278.84V289.43L317.325 289.955H316.695V278.84H317.97Z" fill="#46194F"/>
<path d="M141.856 383.26V393.865C141.856 395.065 141.491 395.99 140.761 396.64C140.051 397.27 139.091 397.585 137.881 397.585H136.216C135.026 397.585 134.076 397.28 133.366 396.67C132.606 396.02 132.226 395.085 132.226 393.865V390.73L132.871 390.205H133.501V393.835C133.501 394.835 133.761 395.53 134.281 395.92C134.811 396.32 135.731 396.52 137.041 396.52C138.291 396.52 139.171 396.35 139.681 396.01C140.281 395.6 140.581 394.875 140.581 393.835V383.26H141.856ZM147.246 383.8C147.446 383.8 147.616 383.875 147.756 384.025C147.906 384.165 147.981 384.335 147.981 384.535C147.981 384.745 147.906 384.925 147.756 385.075C147.616 385.215 147.446 385.285 147.246 385.285C147.046 385.285 146.871 385.215 146.721 385.075C146.581 384.925 146.511 384.745 146.511 384.535C146.511 384.335 146.581 384.165 146.721 384.025C146.871 383.875 147.046 383.8 147.246 383.8ZM147.876 387.1V392.935H148.641V394H147.876C147.846 395.04 147.531 395.87 146.931 396.49C146.441 396.99 145.771 397.32 144.921 397.48C144.601 397.54 144.261 397.57 143.901 397.57C143.661 397.57 143.431 397.565 143.211 397.555L142.716 396.94V396.46C143.006 396.5 143.321 396.52 143.661 396.52C145.621 396.52 146.601 395.62 146.601 393.82V387.1H147.876ZM151.864 383.8C152.074 383.8 152.249 383.875 152.389 384.025C152.539 384.165 152.614 384.335 152.614 384.535C152.614 384.745 152.539 384.925 152.389 385.075C152.249 385.215 152.074 385.285 151.864 385.285C151.664 385.285 151.489 385.215 151.339 385.075C151.199 384.925 151.129 384.745 151.129 384.535C151.129 384.335 151.199 384.165 151.339 384.025C151.489 383.875 151.664 383.8 151.864 383.8ZM152.509 387.1V392.575C152.509 392.695 152.494 392.815 152.464 392.935H153.259V394H152.674L152.239 393.475H152.194C151.924 393.825 151.574 394 151.144 394H148.534V392.935H150.664C150.824 392.935 150.954 392.885 151.054 392.785C151.174 392.675 151.234 392.535 151.234 392.365V387.1H152.509ZM156.103 392.935C155.693 392.265 155.488 391.5 155.488 390.64C155.488 389.43 155.828 388.495 156.508 387.835C157.118 387.255 157.923 386.955 158.923 386.935C159.643 386.935 160.238 387.09 160.708 387.4C161.428 387.88 161.788 388.63 161.788 389.65V392.365C161.788 392.505 161.823 392.625 161.893 392.725C161.983 392.855 162.103 392.925 162.253 392.935H162.283V394H161.908C161.458 394 161.098 393.825 160.828 393.475C160.288 394.125 159.603 394.45 158.773 394.45C157.903 394.45 157.148 394.125 156.508 393.475H156.478L156.058 394H153.148V392.935H156.103ZM160.513 389.65C160.513 389.13 160.348 388.715 160.018 388.405C159.728 388.135 159.353 388 158.893 388C158.253 388 157.738 388.24 157.348 388.72C156.958 389.19 156.763 389.81 156.763 390.58C156.763 391.39 156.968 392.065 157.378 392.605C157.768 393.125 158.258 393.385 158.848 393.385C159.428 393.385 159.983 393.12 160.513 392.59V389.65ZM166.132 383.26V392.575C166.132 392.695 166.117 392.815 166.087 392.935H166.882V394H166.357L165.862 393.475H165.817C165.547 393.825 165.197 394 164.767 394H162.157V392.935H164.287C164.477 392.935 164.627 392.86 164.737 392.71C164.817 392.61 164.857 392.495 164.857 392.365V383.26H166.132ZM170.746 383.26V392.575C170.746 392.965 170.616 393.295 170.356 393.565C170.086 393.855 169.761 394 169.381 394H166.771V392.935H168.901C169.091 392.935 169.236 392.87 169.336 392.74C169.426 392.63 169.471 392.505 169.471 392.365V383.26H170.746ZM185.201 383.26V392.935H185.966V394H185.201C185.171 395.13 184.806 396.01 184.106 396.64C183.396 397.27 182.436 397.585 181.226 397.585H179.561C178.371 397.585 177.421 397.28 176.711 396.67C175.951 396.02 175.571 395.085 175.571 393.865V390.73L176.216 390.205H176.846V393.835C176.846 394.835 177.106 395.53 177.626 395.92C178.156 396.32 179.076 396.52 180.386 396.52C181.636 396.52 182.516 396.35 183.026 396.01C183.626 395.6 183.926 394.875 183.926 393.835V383.26H185.201ZM189.818 387.1V392.575C189.818 392.695 189.803 392.815 189.773 392.935H190.568V394H189.983L189.548 393.475H189.503C189.233 393.825 188.883 394 188.453 394H185.843V392.935H187.973C188.133 392.935 188.263 392.885 188.363 392.785C188.483 392.675 188.543 392.535 188.543 392.365V387.1H189.818ZM187.253 395.56C187.453 395.56 187.623 395.63 187.763 395.77C187.913 395.92 187.988 396.095 187.988 396.295C187.988 396.505 187.913 396.68 187.763 396.82C187.623 396.97 187.453 397.045 187.253 397.045C187.053 397.045 186.878 396.97 186.728 396.82C186.588 396.68 186.518 396.505 186.518 396.295C186.518 396.095 186.588 395.92 186.728 395.77C186.878 395.63 187.053 395.56 187.253 395.56ZM189.068 395.56C189.278 395.56 189.453 395.63 189.593 395.77C189.743 395.92 189.818 396.095 189.818 396.295C189.818 396.505 189.743 396.68 189.593 396.82C189.453 396.97 189.278 397.045 189.068 397.045C188.868 397.045 188.693 396.97 188.543 396.82C188.403 396.68 188.333 396.505 188.333 396.295C188.333 396.095 188.403 395.92 188.543 395.77C188.693 395.63 188.868 395.56 189.068 395.56ZM194.433 390.385C195.803 388.065 197.588 386.905 199.788 386.905C200.998 386.905 201.968 387.28 202.698 388.03C203.358 388.7 203.688 389.55 203.688 390.58V392.575C203.688 392.995 203.543 393.345 203.253 393.625C202.993 393.875 202.688 394 202.338 394H190.458V392.935H193.158V387.1H194.433V390.385ZM202.413 390.445C202.403 389.635 202.103 389.01 201.513 388.57C201.013 388.2 200.388 388.015 199.638 388.015C198.828 388.015 198.063 388.25 197.343 388.72C196.143 389.52 195.173 390.925 194.433 392.935H201.843C202.223 392.935 202.413 392.745 202.413 392.365V390.445ZM208.736 394C207.596 394 206.721 393.62 206.111 392.86C205.601 392.23 205.346 391.42 205.346 390.43C205.346 389.3 205.686 388.42 206.366 387.79C206.976 387.21 207.781 386.92 208.781 386.92C209.561 386.92 210.211 387.115 210.731 387.505C211.361 387.995 211.676 388.71 211.676 389.65V392.935H212.156V394H211.676C211.636 395.05 211.321 395.875 210.731 396.475C210.281 396.935 209.696 397.25 208.976 397.42C208.566 397.52 208.136 397.57 207.686 397.57C207.446 397.57 207.216 397.565 206.996 397.555L206.501 396.94V396.46C206.801 396.5 207.116 396.52 207.446 396.52C209.356 396.52 210.336 395.68 210.386 394H208.736ZM210.386 389.65C210.386 389.14 210.236 388.735 209.936 388.435C209.646 388.145 209.261 388 208.781 388C208.111 388 207.581 388.225 207.191 388.675C206.811 389.125 206.621 389.75 206.621 390.55C206.621 391.26 206.816 391.835 207.206 392.275C207.596 392.715 208.101 392.935 208.721 392.935H210.386V389.65ZM213.58 383.8C213.79 383.8 213.965 383.875 214.105 384.025C214.245 384.165 214.315 384.335 214.315 384.535C214.315 384.745 214.245 384.925 214.105 385.075C213.965 385.215 213.79 385.285 213.58 385.285C213.38 385.285 213.205 385.215 213.055 385.075C212.915 384.925 212.845 384.745 212.845 384.535C212.845 384.335 212.915 384.165 213.055 384.025C213.205 383.875 213.38 383.8 213.58 383.8ZM215.41 383.8C215.61 383.8 215.78 383.875 215.92 384.025C216.07 384.165 216.145 384.335 216.145 384.535C216.145 384.745 216.07 384.925 215.92 385.075C215.78 385.215 215.61 385.285 215.41 385.285C215.2 385.285 215.02 385.215 214.87 385.075C214.73 384.925 214.66 384.745 214.66 384.535C214.66 384.335 214.73 384.165 214.87 384.025C215.02 383.875 215.2 383.8 215.41 383.8ZM216.01 387.1V392.575C216.01 392.695 215.995 392.815 215.965 392.935H216.76V394H216.175L215.74 393.475H215.695C215.425 393.825 215.075 394 214.645 394H212.035V392.935H214.165C214.325 392.935 214.455 392.885 214.555 392.785C214.675 392.675 214.735 392.535 214.735 392.365V387.1H216.01ZM220.624 383.26V392.575C220.624 392.965 220.494 393.295 220.234 393.565C219.964 393.855 219.639 394 219.259 394H216.649V392.935H218.779C218.969 392.935 219.114 392.87 219.214 392.74C219.304 392.63 219.349 392.505 219.349 392.365V383.26H220.624ZM223.97 383.26V393.85L223.325 394.375H222.695V383.26H223.97Z" fill="#46194F"/>
<path d="M138.112 3.8C138.322 3.8 138.497 3.875 138.637 4.025C138.787 4.165 138.862 4.335 138.862 4.535C138.862 4.745 138.787 4.925 138.637 5.075C138.497 5.215 138.322 5.285 138.112 5.285C137.912 5.285 137.737 5.215 137.587 5.075C137.447 4.925 137.377 4.745 137.377 4.535C137.377 4.335 137.447 4.165 137.587 4.025C137.737 3.875 137.912 3.8 138.112 3.8ZM135.832 12.935C135.202 12.255 134.887 11.405 134.887 10.385C134.887 9.415 135.152 8.62 135.682 8C136.292 7.28 137.102 6.92 138.112 6.92C139.012 6.92 139.762 7.215 140.362 7.805C141.022 8.455 141.352 9.315 141.352 10.385C141.352 11.385 141.037 12.235 140.407 12.935H141.712V14H139.567H139.387C138.797 14 138.382 13.96 138.142 13.88H138.097C137.857 13.96 137.437 14 136.837 14H136.657H130.642C130.042 14 129.522 13.795 129.082 13.385C128.552 12.895 128.287 12.275 128.287 11.525V8.705L128.932 8.18H129.562V11.525C129.562 11.905 129.692 12.23 129.952 12.5C130.232 12.79 130.582 12.935 131.002 12.935H135.832ZM140.077 10.4C140.077 9.66 139.897 9.075 139.537 8.645C139.187 8.215 138.712 8 138.112 8C137.482 8 136.997 8.225 136.657 8.675C136.337 9.095 136.177 9.68 136.177 10.43C136.177 11.13 136.362 11.715 136.732 12.185C137.102 12.655 137.562 12.905 138.112 12.935C138.762 12.905 139.272 12.585 139.642 11.975C139.932 11.505 140.077 10.98 140.077 10.4ZM150.771 2.36C150.971 2.36 151.136 2.43 151.266 2.57C151.406 2.71 151.476 2.875 151.476 3.065C151.476 3.255 151.406 3.42 151.266 3.56C151.136 3.7 150.971 3.77 150.771 3.77C150.581 3.77 150.416 3.7 150.276 3.56C150.136 3.42 150.066 3.255 150.066 3.065C150.066 2.875 150.136 2.71 150.276 2.57C150.416 2.43 150.581 2.36 150.771 2.36ZM149.871 3.8C150.071 3.8 150.241 3.875 150.381 4.025C150.531 4.165 150.606 4.335 150.606 4.535C150.606 4.745 150.531 4.925 150.381 5.075C150.241 5.215 150.071 5.285 149.871 5.285C149.661 5.285 149.481 5.215 149.331 5.075C149.191 4.925 149.121 4.745 149.121 4.535C149.121 4.335 149.191 4.165 149.331 4.025C149.481 3.875 149.661 3.8 149.871 3.8ZM151.686 3.8C151.886 3.8 152.056 3.875 152.196 4.025C152.346 4.165 152.421 4.335 152.421 4.535C152.421 4.745 152.346 4.925 152.196 5.075C152.056 5.215 151.886 5.285 151.686 5.285C151.486 5.285 151.311 5.215 151.161 5.075C151.021 4.925 150.951 4.745 150.951 4.535C150.951 4.335 151.021 4.165 151.161 4.025C151.311 3.875 151.486 3.8 151.686 3.8ZM155.871 7.1V12.575C155.871 12.705 155.856 12.825 155.826 12.935H156.636V14H156.036L155.616 13.475H155.571C155.291 13.825 154.941 14 154.521 14H151.566L151.146 13.475H151.101C150.821 13.825 150.471 14 150.051 14H147.096L146.676 13.475H146.631C146.351 13.825 146.001 14 145.581 14H141.606V12.935H145.086C145.466 12.935 145.656 12.745 145.656 12.365V8.825H146.931V12.575C146.931 12.705 146.921 12.825 146.901 12.935H149.556C149.936 12.935 150.126 12.745 150.126 12.365V7.955H151.401V12.575C151.401 12.705 151.386 12.825 151.356 12.935H154.026C154.406 12.935 154.596 12.745 154.596 12.365V7.1H155.871ZM163.298 3.035V4.205L159.533 6.44C161.093 6.86 162.323 7.64 163.223 8.78C164.043 9.82 164.453 11.02 164.453 12.38C164.453 12.61 164.438 12.795 164.408 12.935H164.918V14H164.618L164.183 13.475H164.153C163.853 13.825 163.503 14 163.103 14H156.518V12.935H162.608C162.998 12.935 163.193 12.735 163.193 12.335C163.143 11.295 162.838 10.38 162.278 9.59C161.478 8.43 160.198 7.73 158.438 7.49C158.378 7.49 158.348 7.455 158.348 7.385V5.9L163.298 3.035ZM166.339 3.8C166.549 3.8 166.724 3.875 166.864 4.025C167.004 4.165 167.074 4.335 167.074 4.535C167.074 4.745 167.004 4.925 166.864 5.075C166.724 5.215 166.549 5.285 166.339 5.285C166.139 5.285 165.964 5.215 165.814 5.075C165.674 4.925 165.604 4.745 165.604 4.535C165.604 4.335 165.674 4.165 165.814 4.025C165.964 3.875 166.139 3.8 166.339 3.8ZM168.169 3.8C168.369 3.8 168.539 3.875 168.679 4.025C168.829 4.165 168.904 4.335 168.904 4.535C168.904 4.745 168.829 4.925 168.679 5.075C168.539 5.215 168.369 5.285 168.169 5.285C167.959 5.285 167.779 5.215 167.629 5.075C167.489 4.925 167.419 4.745 167.419 4.535C167.419 4.335 167.489 4.165 167.629 4.025C167.779 3.875 167.959 3.8 168.169 3.8ZM168.769 7.1V12.575C168.769 12.695 168.754 12.815 168.724 12.935H169.519V14H168.934L168.499 13.475H168.454C168.184 13.825 167.834 14 167.404 14H164.794V12.935H166.924C167.084 12.935 167.214 12.885 167.314 12.785C167.434 12.675 167.494 12.535 167.494 12.365V7.1H168.769ZM183.674 7.1V12.575C183.674 12.965 183.539 13.3 183.269 13.58C183.009 13.86 182.694 14 182.324 14H179.429L178.949 13.475H178.904C178.624 13.825 178.274 14 177.854 14H174.974L174.479 13.475H174.434C174.154 13.825 173.804 14 173.384 14H169.409V12.935H172.889C173.269 12.935 173.459 12.745 173.459 12.365V8.825H174.734V12.575C174.734 12.705 174.724 12.825 174.704 12.935H177.359C177.739 12.935 177.929 12.745 177.929 12.365V7.955H179.204V12.575C179.204 12.705 179.189 12.825 179.159 12.935H181.829C182.209 12.935 182.399 12.745 182.399 12.365V7.1H183.674ZM187.013 3.26V13.85L186.368 14.375H185.738V3.26H187.013ZM193.908 13.85C193.388 14.04 192.843 14.135 192.273 14.135C191.193 14.135 190.338 13.755 189.708 12.995C189.148 12.325 188.868 11.47 188.868 10.43C188.868 9.38 189.163 8.54 189.753 7.91C190.383 7.25 191.233 6.92 192.303 6.92C193.113 6.92 193.773 7.125 194.283 7.535C194.893 8.025 195.198 8.73 195.198 9.65V13.865C195.188 15.145 194.768 16.11 193.938 16.76C193.518 17.09 193.013 17.32 192.423 17.45C192.033 17.53 191.628 17.57 191.208 17.57C190.968 17.57 190.738 17.565 190.518 17.555L190.023 16.94V16.46C190.323 16.5 190.638 16.52 190.968 16.52C192.918 16.52 193.898 15.63 193.908 13.85ZM193.908 9.65C193.908 9.03 193.688 8.565 193.248 8.255C192.998 8.085 192.683 8 192.303 8C191.633 8 191.103 8.225 190.713 8.675C190.333 9.125 190.143 9.75 190.143 10.55C190.143 11.31 190.363 11.91 190.803 12.35C191.193 12.76 191.713 12.965 192.363 12.965C192.933 12.965 193.448 12.875 193.908 12.695V9.65ZM204.495 6.92C204.695 6.92 204.865 6.995 205.005 7.145C205.155 7.285 205.23 7.455 205.23 7.655C205.23 7.865 205.155 8.045 205.005 8.195C204.865 8.335 204.695 8.405 204.495 8.405C204.295 8.405 204.12 8.335 203.97 8.195C203.83 8.045 203.76 7.865 203.76 7.655C203.76 7.455 203.83 7.285 203.97 7.145C204.12 6.995 204.295 6.92 204.495 6.92ZM209.445 7.1V13.865C209.445 15.065 209.08 15.99 208.35 16.64C207.64 17.27 206.68 17.585 205.47 17.585H203.805C202.615 17.585 201.665 17.28 200.955 16.67C200.195 16.02 199.815 15.085 199.815 13.865V10.73L200.46 10.205H201.09V13.835C201.09 14.835 201.35 15.53 201.87 15.92C202.4 16.32 203.32 16.52 204.63 16.52C205.88 16.52 206.76 16.35 207.27 16.01C207.87 15.6 208.17 14.875 208.17 13.835V7.1H209.445ZM215.464 7.1V13.865C215.464 14.975 215.149 15.85 214.519 16.49C214.029 16.99 213.369 17.32 212.539 17.48C212.219 17.54 211.869 17.57 211.489 17.57C211.249 17.57 211.019 17.565 210.799 17.555L210.304 16.94V16.46C210.594 16.5 210.909 16.52 211.249 16.52C213.209 16.52 214.189 15.62 214.189 13.82V7.1H215.464ZM218.83 3.26V12.365C218.83 12.525 218.88 12.66 218.98 12.77C219.09 12.88 219.23 12.935 219.4 12.935H219.595V14H218.905C218.585 14 218.305 13.895 218.065 13.685C217.725 13.395 217.555 13.025 217.555 12.575V3.26H218.83ZM224.442 3.8C224.642 3.8 224.812 3.875 224.952 4.025C225.102 4.165 225.177 4.335 225.177 4.535C225.177 4.745 225.102 4.925 224.952 5.075C224.812 5.215 224.642 5.285 224.442 5.285C224.232 5.285 224.052 5.215 223.902 5.075C223.762 4.925 223.692 4.745 223.692 4.535C223.692 4.335 223.762 4.165 223.902 4.025C224.052 3.875 224.232 3.8 224.442 3.8ZM226.257 3.8C226.467 3.8 226.642 3.875 226.782 4.025C226.922 4.165 226.992 4.335 226.992 4.535C226.992 4.745 226.922 4.925 226.782 5.075C226.642 5.215 226.467 5.285 226.257 5.285C226.057 5.285 225.882 5.215 225.732 5.075C225.592 4.925 225.522 4.745 225.522 4.535C225.522 4.335 225.592 4.165 225.732 4.025C225.882 3.875 226.057 3.8 226.257 3.8ZM222.852 12.935C222.472 12.585 222.192 12.15 222.012 11.63C221.872 11.21 221.802 10.795 221.802 10.385C221.802 9.315 222.122 8.465 222.762 7.835C223.392 7.225 224.247 6.92 225.327 6.92C226.147 6.92 226.802 7.13 227.292 7.55C227.862 8.03 228.157 8.73 228.177 9.65V12.575C228.177 12.965 228.042 13.3 227.772 13.58C227.512 13.86 227.197 14 226.827 14H219.492V12.935H222.852ZM226.887 9.65C226.887 9.09 226.722 8.66 226.392 8.36C226.132 8.12 225.777 8 225.327 8C224.497 8 223.887 8.29 223.497 8.87C223.217 9.27 223.077 9.79 223.077 10.43C223.087 11.11 223.307 11.69 223.737 12.17C224.187 12.68 224.782 12.935 225.522 12.935H226.332C226.702 12.935 226.887 12.745 226.887 12.365V9.65Z" fill="#46194F"/>
<path d="M29.1587 265.726V271.561H29.9237V272.626H29.1587C29.1287 273.876 28.6837 274.811 27.8237 275.431C27.1337 275.941 26.2387 276.196 25.1387 276.196C24.9687 276.196 24.7537 276.191 24.4937 276.181L23.9987 275.566V275.086C24.2887 275.126 24.6037 275.146 24.9437 275.146C26.9037 275.146 27.8837 274.246 27.8837 272.446V265.726H29.1587ZM31.902 268.171C32.252 267.291 32.837 266.606 33.657 266.116C34.317 265.736 35.002 265.546 35.712 265.546C36.422 265.546 37.102 265.736 37.752 266.116C38.582 266.606 39.167 267.291 39.507 268.171L39.372 268.531C38.682 268.821 38.117 269.216 37.677 269.716C37.227 270.236 36.942 270.851 36.822 271.561H39.657V272.626H36.612C36.312 272.626 36.022 272.481 35.742 272.191H35.697C35.427 272.481 35.137 272.626 34.827 272.626H29.817V271.561H34.602C34.492 270.951 34.242 270.376 33.852 269.836C33.402 269.276 32.802 268.841 32.052 268.531L31.902 268.171ZM38.127 268.021C37.797 267.541 37.422 267.181 37.002 266.941C36.602 266.731 36.172 266.626 35.712 266.626C35.252 266.626 34.837 266.721 34.467 266.911C34.027 267.131 33.637 267.501 33.297 268.021C33.817 268.251 34.262 268.576 34.632 268.996C35.092 269.516 35.442 270.166 35.682 270.946H35.727C35.977 270.136 36.337 269.471 36.807 268.951C37.187 268.551 37.627 268.241 38.127 268.021ZM53.8232 265.726V271.201C53.8232 271.331 53.8082 271.451 53.7782 271.561H54.5882V272.626H53.9882L53.5682 272.101H53.5232C53.2432 272.451 52.8932 272.626 52.4732 272.626H49.5182L49.0982 272.101H49.0532C48.7732 272.451 48.4232 272.626 48.0032 272.626H45.0482L44.6282 272.101H44.5832C44.3032 272.451 43.9532 272.626 43.5332 272.626H39.5582V271.561H43.0382C43.4182 271.561 43.6082 271.371 43.6082 270.991V267.451H44.8832V271.201C44.8832 271.331 44.8732 271.451 44.8532 271.561H47.5082C47.8882 271.561 48.0782 271.371 48.0782 270.991V266.581H49.3532V271.201C49.3532 271.331 49.3382 271.451 49.3082 271.561H51.9782C52.3582 271.561 52.5482 271.371 52.5482 270.991V265.726H53.8232ZM58.4453 261.886V271.201C58.4453 271.591 58.3153 271.921 58.0553 272.191C57.7853 272.481 57.4603 272.626 57.0803 272.626H54.4703V271.561H56.6003C56.7903 271.561 56.9353 271.496 57.0353 271.366C57.1253 271.256 57.1703 271.131 57.1703 270.991V261.886H58.4453ZM61.7914 261.886V272.476L61.1464 273.001H60.5164V261.886H61.7914ZM29.7204 282.726V288.201C29.7204 288.331 29.7054 288.451 29.6754 288.561H30.4854V289.626H29.9454L29.4504 289.101H29.4204C29.1404 289.451 28.7904 289.626 28.3704 289.626H19.7904C19.2304 289.626 18.7354 289.441 18.3054 289.071C17.7254 288.591 17.4354 287.951 17.4354 287.151V284.331L18.0804 283.806H18.7104V287.151C18.7104 287.541 18.8454 287.871 19.1154 288.141C19.4054 288.421 19.7504 288.561 20.1504 288.561H27.8754C28.0454 288.561 28.1904 288.501 28.3104 288.381C28.4004 288.281 28.4454 288.151 28.4454 287.991V282.726H29.7204ZM23.5854 291.186C23.7854 291.186 23.9554 291.256 24.0954 291.396C24.2454 291.546 24.3204 291.721 24.3204 291.921C24.3204 292.131 24.2454 292.306 24.0954 292.446C23.9554 292.596 23.7854 292.671 23.5854 292.671C23.3754 292.671 23.1954 292.596 23.0454 292.446C22.9054 292.306 22.8354 292.131 22.8354 291.921C22.8354 291.721 22.9054 291.546 23.0454 291.396C23.1954 291.256 23.3754 291.186 23.5854 291.186ZM44.6239 282.726V288.201C44.6239 288.591 44.4889 288.926 44.2189 289.206C43.9589 289.486 43.6439 289.626 43.2739 289.626H40.3789L39.8989 289.101H39.8539C39.5739 289.451 39.2239 289.626 38.8039 289.626H35.9239L35.4289 289.101H35.3839C35.1039 289.451 34.7539 289.626 34.3339 289.626H30.3589V288.561H33.8389C34.2189 288.561 34.4089 288.371 34.4089 287.991V284.451H35.6839V288.201C35.6839 288.331 35.6739 288.451 35.6539 288.561H38.3089C38.6889 288.561 38.8789 288.371 38.8789 287.991V283.581H40.1539V288.201C40.1539 288.331 40.1389 288.451 40.1089 288.561H42.7789C43.1589 288.561 43.3489 288.371 43.3489 287.991V282.726H44.6239ZM47.9633 278.886V287.991C47.9633 288.151 48.0133 288.286 48.1133 288.396C48.2233 288.506 48.3633 288.561 48.5333 288.561H48.7283V289.626H48.0383C47.7183 289.626 47.4383 289.521 47.1983 289.311C46.8583 289.021 46.6883 288.651 46.6883 288.201V278.886H47.9633ZM51.9555 279.426C52.1655 279.426 52.3405 279.501 52.4805 279.651C52.6305 279.791 52.7055 279.961 52.7055 280.161C52.7055 280.371 52.6305 280.551 52.4805 280.701C52.3405 280.841 52.1655 280.911 51.9555 280.911C51.7555 280.911 51.5805 280.841 51.4305 280.701C51.2905 280.551 51.2205 280.371 51.2205 280.161C51.2205 279.961 51.2905 279.791 51.4305 279.651C51.5805 279.501 51.7555 279.426 51.9555 279.426ZM52.6005 282.726V288.201C52.6005 288.321 52.5855 288.441 52.5555 288.561H53.3505V289.626H52.7655L52.3305 289.101H52.2855C52.0155 289.451 51.6655 289.626 51.2355 289.626H48.6255V288.561H50.7555C50.9155 288.561 51.0455 288.511 51.1455 288.411C51.2655 288.301 51.3255 288.161 51.3255 287.991V282.726H52.6005ZM56.1948 288.561C55.7848 287.891 55.5798 287.126 55.5798 286.266C55.5798 285.056 55.9198 284.121 56.5998 283.461C57.2098 282.881 58.0148 282.581 59.0148 282.561C59.7348 282.561 60.3298 282.716 60.7998 283.026C61.5198 283.506 61.8798 284.256 61.8798 285.276V287.991C61.8798 288.131 61.9148 288.251 61.9848 288.351C62.0748 288.481 62.1948 288.551 62.3448 288.561H62.3748V289.626H61.9998C61.5498 289.626 61.1898 289.451 60.9198 289.101C60.3798 289.751 59.6948 290.076 58.8648 290.076C57.9948 290.076 57.2398 289.751 56.5998 289.101H56.5698L56.1498 289.626H53.2398V288.561H56.1948ZM60.6048 285.276C60.6048 284.756 60.4398 284.341 60.1098 284.031C59.8198 283.761 59.4448 283.626 58.9848 283.626C58.3448 283.626 57.8298 283.866 57.4398 284.346C57.0498 284.816 56.8548 285.436 56.8548 286.206C56.8548 287.016 57.0598 287.691 57.4698 288.231C57.8598 288.751 58.3498 289.011 58.9398 289.011C59.5198 289.011 60.0748 288.746 60.6048 288.216V285.276ZM66.2236 278.886V288.201C66.2236 288.591 66.0936 288.921 65.8336 289.191C65.5636 289.481 65.2386 289.626 64.8586 289.626H62.2486V288.561H64.3786C64.5686 288.561 64.7136 288.496 64.8136 288.366C64.9036 288.256 64.9486 288.131 64.9486 287.991V278.886H66.2236ZM69.5698 278.886V289.476L68.9248 290.001H68.2948V278.886H69.5698Z" fill="#46194F"/>
<path d="M83 247C87.1758 255.667 92.6506 263.606 99.1889 270.567C101.647 273.191 104.254 275.668 107 278" stroke="#46194F" stroke-width="2" stroke-miterlimit="10"/>
<path d="M86.58 137C95.783 124.229 107.299 113.053 120.58 104" stroke="#46194F" stroke-width="2" stroke-miterlimit="10"/>
<path d="M288.55 194.54C288.55 161.57 274.02 131.99 251.02 111.86" stroke="#46194F" stroke-width="2" stroke-miterlimit="10"/>
<path d="M53.79 248.58C83.4974 248.58 107.58 224.497 107.58 194.79C107.58 165.083 83.4974 141 53.79 141C24.0826 141 0 165.083 0 194.79C0 224.497 24.0826 248.58 53.79 248.58Z" fill="#DDD3DF"/>
<g clip-path="url(#clip0_842_44)">
<path d="M47.86 174.63H57.74C57.82 174.63 58.67 174.89 58.85 174.95C61.67 175.93 62.97 179.28 61.57 181.93L70.65 180.77C72.09 178.71 72.85 176.46 75.04 175.02C79.19 172.28 84.89 173.35 87.46 177.67C89.79 181.59 88.83 185.25 86.35 188.78L94.19 195.14L94.33 241.29C94.09 244.05 91.96 246.19 89.25 246.53C79.86 246 69.7 247.24 60.41 246.53C58.72 246.4 57.3 245.39 55.52 245.37C47.5 240.41 38.02 236.2 30.26 230.93C27.72 229.2 26.68 226.82 27.72 223.79L38.79 204.33C37.8 204.32 36.79 204.18 35.91 203.74C34.47 203.04 34.2 201.64 32.3 201.47C29.85 201.25 30.8 201.94 29.62 203.08C29.23 203.46 28.15 204.02 27.62 204.11C26.18 204.35 20.8 204.34 19.31 204.14C17.7 203.92 16.21 202.25 16.02 200.66L16 178.25C16.19 176.58 17.79 174.97 19.47 174.78C21.04 174.6 26.15 174.56 27.65 174.79C28.11 174.86 29.27 175.52 29.62 175.85C30.53 176.69 30.32 178.13 32.01 177.17C33.22 176.49 36.14 171.96 36.81 170.58C38.13 167.88 38.26 165.57 39.06 162.86C40.27 158.74 44.85 159.46 47.06 162.34C49.76 165.87 48.45 170.61 47.88 174.61L47.86 174.63ZM45.01 174.63C45.17 171.51 47.14 165.59 44.03 163.42C43.51 163.06 42.26 162.53 41.92 163.29C41.54 164.14 41.34 166.27 41.04 167.38C40.01 171.11 37.95 175.01 35.39 177.93C34.21 179.27 32.85 180.44 30.94 180.34V198.68C32.06 198.68 33.06 198.59 34.14 198.95C35.63 199.45 36.16 200.87 37.63 201.34L55.03 201.31C55.91 200.86 56.14 199.72 55.43 199.03C54.64 198.26 52.03 198.96 50.87 198.6C49.71 198.24 49.7 196.2 50.83 195.87C52.7 195.33 57.79 197.06 58.01 193.96C58.27 190.41 52.52 192.99 51.73 191.16C50.36 187.98 56.03 189.11 57.55 188.88C59.86 188.52 59.85 184.92 57.21 184.62C55.95 184.48 52.43 185.25 52.5 183.13C52.59 180.44 57.49 182.94 58.9 180.8C59.7 179.58 59.06 177.86 57.57 177.68C53.13 177.16 47.77 178.14 43.23 177.6C40.22 176.4 42.51 174 45.02 174.65L45.01 174.63ZM74.39 180.33L75.53 180.53L83.92 187.09C86.02 184.54 86.81 181.06 84.46 178.37C81.46 174.94 75.96 176.18 74.4 180.33H74.39ZM73.83 183.38L72.48 183.59L69.58 188.88C74.3 190.05 73.63 197.65 68.94 198.3C62.55 199.18 60.62 190.81 66.51 188.66L68.87 183.9L62.22 184.82C61.65 185 62.1 185.84 62.11 186.3C62.14 188.28 61.6 189.75 59.99 190.93C61.59 193.2 61.05 196.81 58.39 197.99C59.47 201.11 57.92 204.03 54.54 204.37C50.8 204.74 46.26 203.92 42.6 204.37C42.4 204.39 42.21 204.37 42.07 204.56L30.37 224.91C30.01 226 30.23 227.24 31.03 228.06L55.97 242.46C57.1 243.07 58.36 242.74 59.25 241.87L81.76 202.98L73.82 183.41L73.83 183.38ZM61.57 243.7H89.07C89.31 243.7 90.46 243.06 90.68 242.82C91.09 242.39 91.41 241.53 91.47 240.94V196.47L78.12 186.2L84.88 202.68L84.85 203.33L78.84 213.88C81.53 213.93 83.94 215.49 84.46 218.23C84.3 222.96 84.95 228.27 84.55 232.93C84.35 235.3 82.8 237.05 80.52 237.63L65.26 237.68L61.58 243.7H61.57ZM66.02 192.44C64.97 197.35 72.31 195.67 69.13 191.73C68.95 192.44 69.54 193.14 69.33 193.87C69.05 194.81 67.64 195.26 66.9 194.5L66.02 192.45V192.44ZM66.73 234.8H79.99C80.79 234.8 81.57 233.46 81.67 232.74C82.23 228.61 81.3 223.32 81.67 219.06C81.26 216.57 79.17 216.92 77.18 217.03L66.73 234.8Z" fill="#46194F"/>
<path d="M38.56 223.62C39.33 223.45 39.7 223.78 40.33 224.09C45.45 226.57 50.42 230.34 55.58 232.87C57.25 233.82 56.35 236.19 54.44 235.61L38.08 226.16C37.16 225.49 37.43 223.87 38.56 223.62Z" fill="#46194F"/>
<path fill-rule="evenodd" clip-rule="evenodd" d="M46.95 209.87L52.29 211.48L56.99 202.92C57.74 202.54 59.02 202.36 59.82 202.33L54.45 212.11L57.02 212.91L60.68 206.25C61.37 205.91 62.72 205.73 63.5 205.7L59.19 213.55L65.27 215.4C64.82 216.28 64.24 216.96 63.44 217.36L58.01 215.7L56.82 217.88L62.92 219.77C62.47 220.65 61.89 221.33 61.09 221.73L53.48 219.38L54.66 217.24L55.84 215.06L53.29 214.25L51.73 217.09C50.94 217.72 49.8 218.15 49 218.52C48.78 218.62 48.76 218.69 48.53 218.62L41.28 216.42C41.57 215.8 42.12 215.09 43.14 214.5L49.57 216.46L51.13 213.62L45.1 211.79C45.39 211.17 45.94 210.46 46.96 209.87H46.95ZM53.04 221.73L60.55 224.08C60.1 224.96 59.41 225.58 58.72 226.04L51.1 223.69C51.52 223 52.15 222.35 53.03 221.73H53.04Z" fill="#46194F"/>
</g>
<path d="M295.79 248.58C325.497 248.58 349.58 224.497 349.58 194.79C349.58 165.083 325.497 141 295.79 141C266.083 141 242 165.083 242 194.79C242 224.497 266.083 248.58 295.79 248.58Z" fill="#DDD3DF"/>
<path d="M298.16 158.82L302.36 159.39C316.3 161.93 327.7 172.73 330.84 186.55L331.79 192.45C331.72 193.99 331.89 195.6 331.79 197.13C330.22 221.61 304.71 237.74 281.92 227.84C280.71 227.32 278.69 225.93 277.71 225.63C277.09 225.44 276.42 225.5 275.96 225.98C269.69 231.72 264 238.67 257.68 244.28C248.84 252.13 238.9 244.06 245.03 234.41L265 214.17C265.08 213.75 265.08 213.31 264.96 212.9C264.66 211.92 263.28 209.9 262.75 208.69C252.85 185.9 268.98 160.39 293.46 158.82H298.14H298.16ZM295.35 168.23C274.51 168.6 262.17 191.83 273.54 209.36C283.77 225.14 307.13 225.4 317.72 209.84C329.82 192.06 316.86 167.85 295.36 168.23H295.35Z" fill="#46194F"/>
<mask id="mask0_842_44" style="mask-type:luminance" maskUnits="userSpaceOnUse" x="269" y="168" width="54" height="54">
<path d="M295.35 168.23C274.51 168.6 262.17 191.83 273.54 209.36C283.77 225.14 307.13 225.4 317.72 209.84C329.82 192.06 316.86 167.85 295.36 168.23H295.35Z" fill="white"/>
</mask>
<g mask="url(#mask0_842_44)">
<path d="M339.21 185.15H341.71C341.89 184.53 341.95 183.83 341.69 183.22C340.33 183.25 338.7 183.13 338.94 181.33C339.14 179.87 341.26 179.97 342.34 180.27C344.64 180.91 345.04 183.26 344.75 185.34C344.46 187.42 342.25 188.35 340.32 188.27C342.2 190.31 344.19 192.27 344.94 195.04C345.55 197.27 345.58 204.46 345.31 206.87C345.13 208.45 344.09 209.64 342.85 210.52C342.93 213.54 343.14 217.2 339.5 218.15C337.93 218.56 332.63 218.53 331.2 217.82C330.32 217.39 328.79 215.65 328.79 214.67V211.13H300.17V214.67C300.17 215.65 298.64 217.39 297.76 217.82C296.33 218.53 291.03 218.56 289.46 218.15C285.82 217.2 286.03 213.54 286.11 210.52C284.87 209.64 283.83 208.45 283.65 206.87C283.37 204.46 283.41 197.26 284.02 195.04C284.78 192.25 286.74 190.32 288.64 188.27C286.71 188.35 284.5 187.5 284.21 185.34C283.92 183.18 284.32 180.92 286.62 180.27C287.7 179.97 289.83 179.87 290.02 181.33C290.26 183.12 288.63 183.24 287.27 183.22C287.01 183.83 287.07 184.52 287.25 185.15H289.75C290.27 183.13 290.85 181.06 291.52 179.07C293.24 173.95 295.97 170.79 301.63 170.14C310.01 170.55 318.88 169.62 327.21 170.14C335.54 170.66 337.05 177.93 339.16 184.6C339.22 184.78 339.24 184.97 339.22 185.16L339.21 185.15ZM342.41 202.11V197.59C342.41 193.52 338.86 192.18 337.52 189.42C334.4 182.96 335.87 173.64 326.23 173.06C318.11 172.58 309.38 173.31 301.23 173.22C293.66 174.44 293.94 183.96 291.45 189.56C290.08 191.36 286.7 194.35 286.7 196.76V202.11H293.72C294.25 202.11 295.04 201.3 295.15 200.76C295.25 200.26 295.25 198.68 295.19 198.15C294.91 195.8 291.17 196.75 289.56 196.56C287.97 196.37 287.83 193.86 289.7 193.64C290.84 193.5 293.98 193.54 295.02 193.88C299.03 195.18 299.37 201.88 296.23 204.2C295.95 204.41 294.71 205.03 294.42 205.03H286.71C286.75 205.69 286.59 206.43 286.84 207.06C286.94 207.31 287.68 208.09 287.89 208.09H303.66V203.02C303.66 202.52 304.26 201.74 304.8 201.65L323.88 201.55C324.39 201.48 325.34 202.32 325.34 202.73V208.08H341.11C341.11 208.08 341.73 207.74 341.81 207.67C342.27 207.24 342.59 205.84 342.41 205.26L342.22 205.03H334.58C333.01 205.03 331.06 202.58 330.9 201.07C330.58 198.17 330.92 194.88 334.1 193.85C335.08 193.53 338.36 193.51 339.45 193.63C341.17 193.83 341.17 196.35 339.45 196.55C337.95 196.73 335 195.97 334.12 197.47C333.64 198.29 333.65 200.56 334.24 201.34C334.38 201.53 335.12 202.1 335.28 202.1H342.44L342.41 202.11ZM322.26 204.61H306.7V208.08H322.26V204.61ZM297.11 211.14H289.19V214.27C289.19 214.83 290.28 215.27 290.78 215.32C291.92 215.43 294.67 215.45 295.78 215.3C296.17 215.25 297.11 214.79 297.11 214.41V211.14ZM339.77 211.14H331.85V214.41C331.85 214.77 332.82 215.25 333.18 215.3C334.25 215.45 337.06 215.42 338.18 215.32C338.68 215.27 339.77 214.84 339.77 214.27V211.14Z" fill="#46194F"/>
<path d="M296.38 185.19L332.34 185.16C334.54 185.41 334.13 188.36 331.93 188.22H297.04C294.98 188.3 294.4 185.8 296.38 185.19Z" fill="#46194F"/>
<path d="M301.8 193.66L327.26 193.7C328.42 194.35 328.39 195.79 327.23 196.44L302.18 196.55C300.62 196.28 300.36 194.33 301.8 193.66Z" fill="#46194F"/>
</g>
<path d="M171.03 370.08C141.323 370.08 117.24 345.997 117.24 316.29C117.24 286.583 141.323 262.5 171.03 262.5C200.737 262.5 224.82 286.583 224.82 316.29C224.82 345.997 200.737 370.08 171.03 370.08Z" fill="#DDD3DF"/>
<path d="M238 332.37C236.64 336.13 232.53 334.72 229.41 334.93C226.81 322.01 209.09 322.02 206.63 334.97L164.21 334.93C163.95 334.84 163.22 332.15 162.9 331.5C158.78 323.18 146.73 323.1 142.48 331.36C141.86 332.56 141.7 333.85 141.09 334.93C137.82 334.64 133.54 335.43 130.39 334.91C129.25 334.72 128.08 333.68 127.79 332.55C127.5 331.42 127.48 326.04 127.74 324.82C128 323.6 129.16 322.55 130.35 322.26L212.72 322.08C213.57 321.8 213.97 321.06 214.08 320.2V293.7C214.27 292.21 215.59 291.06 217.04 290.82C218.89 290.51 224.94 290.56 226.88 290.79C228.82 291.02 230.27 292.32 231.15 294.07C233.73 299.22 235.21 305.49 237.79 310.71V318.36H232.72C231.8 318.36 230.29 319.86 229.87 320.69C227.27 325.81 233.47 329.66 238 328.71V332.37ZM223.4 313.54C223.89 313.76 233.18 313.74 234.21 313.59C236.66 313.25 236.68 310.19 234.39 309.78C231.05 309.18 226.3 310.13 222.81 309.72L221.66 308.71C221.78 305.82 221.35 302.54 221.61 299.69C221.93 296.16 227.06 298.97 229.03 297.41C230.01 296.63 229.76 294.59 228.58 294.25C227.87 294.04 223.54 294.11 222.58 294.2C220.56 294.38 218.86 295.96 218.28 297.87C217.74 299.66 217.71 307.74 218.28 309.51C218.72 310.88 219.91 312.26 221.25 312.79C222.08 313.11 222.63 313.19 223.4 313.54ZM218.97 315.81C218.78 315.87 218.26 316.34 218.16 316.51C217.85 317.06 217.84 320.68 217.97 321.46C218.26 323.29 221.15 323.31 221.58 321.43C221.73 320.75 221.72 318.12 221.61 317.39C221.4 316.03 220.27 315.42 218.97 315.8V315.81Z" fill="#46194F"/>
<path d="M238 322.45V324.61C237.22 325.4 236.23 325.19 235.24 324.89C234.25 324.59 231.95 323.26 233.27 322.14C233.92 321.58 237.37 321.52 238 322.46V322.45Z" fill="#46194F"/>
<path d="M216.82 328.97C228.19 327.31 229.27 344.4 218.48 344.87C208.63 345.3 207.3 330.36 216.82 328.97Z" stroke="#46194F" stroke-width="3" stroke-miterlimit="10"/>
<path d="M158.39 331.15C165.93 338.7 154.32 349.74 147.04 342.17C139.76 334.59 151.25 324 158.39 331.15Z" stroke="#46194F" stroke-width="3" stroke-miterlimit="10"/>
<path d="M208.07 314.57L207.47 314.61C206.41 314.68 205.43 313.97 205.23 312.92C203.46 303.47 189.41 303.82 188.25 313.41C188.12 314.46 187.2 315.23 186.14 315.23H160.63C159.58 315.23 158.65 314.47 158.52 313.42C157.33 303.62 143.04 303.57 141.5 313.14C141.29 314.45 139.95 315.24 138.69 314.82C136.67 314.13 134.76 312.75 132.8 311.87C132.18 311.59 131.74 311.01 131.62 310.34C131.47 309.54 131.37 308.6 131.4 308.31C131.48 307.53 132.75 306.45 133.16 305.45C133.57 304.45 133.89 301.56 134.49 301.2C135.44 300.61 138.19 301.09 139.62 300.75C143.05 299.95 148.13 296.75 151.63 295.29C157.77 292.74 166.5 290.91 172.58 294.32C175.66 296.05 180.65 301.46 183.57 302.01C186.27 302.52 190.04 301.95 192.92 302.12C198.34 302.44 204.07 303.84 208.87 306.39C209.52 306.74 209.93 307.41 209.97 308.15C210.03 309.37 210.11 311.14 210.06 312.5C210.02 313.59 209.16 314.47 208.07 314.55V314.57Z" stroke="#46194F" stroke-width="2" stroke-miterlimit="10"/>
<path d="M196.439 310.448L196.439 310.448C192.886 310.798 191.244 315.145 193.867 317.67L193.867 317.67C197.303 320.982 202.726 316.714 200.425 312.637C200.061 311.996 199.444 311.405 198.714 310.995C197.983 310.584 197.175 310.375 196.439 310.448Z" fill="#46194F" stroke="#46194F"/>
<path d="M147.138 317.701L147.138 317.701C146.135 316.728 145.761 315.643 145.796 314.627C145.831 313.599 146.286 312.604 147.007 311.838C147.727 311.071 148.693 310.556 149.719 310.461C150.734 310.366 151.847 310.677 152.893 311.63L147.138 317.701ZM147.138 317.701C148.144 318.678 149.239 318.992 150.252 318.893M147.138 317.701L150.252 318.893M150.252 318.893C151.279 318.793 152.262 318.261 153.002 317.475M150.252 318.893L153.002 317.475M153.002 317.475C153.742 316.688 154.214 315.675 154.254 314.646M153.002 317.475L154.254 314.646M154.254 314.646C154.294 313.631 153.918 312.563 152.893 311.63L154.254 314.646Z" fill="#46194F" stroke="#46194F"/>
<path d="M178.04 134.58C148.333 134.58 124.25 110.497 124.25 80.79C124.25 51.0826 148.333 27 178.04 27C207.747 27 231.83 51.0826 231.83 80.79C231.83 110.497 207.747 134.58 178.04 134.58Z" fill="#DDD3DF"/>
<path d="M162.02 69.03C161.55 69.77 160.94 70.43 160.44 71.16C157.23 75.89 156.14 82.15 157.4 87.7C159.3 96.09 166.11 102.5 174.57 103.99L174.59 107.75C173.68 107.76 172.47 107.59 172.25 108.75V130.72C173.24 137.67 182.93 137.75 184.01 130.8L184.03 108.75C183.82 107.63 182.57 107.74 181.69 107.75L181.71 103.99C190.16 102.5 196.91 96.15 198.86 87.79C200.16 82.22 199.07 75.92 195.84 71.17C195.34 70.44 194.73 69.78 194.26 69.04C193.51 68.36 192.84 67.53 192.09 66.87C184.41 60.16 172.09 59.96 164.4 66.81L162.02 69.04V69.03ZM165.32 69.12C176.18 59.19 193.78 64.77 196.68 79.43C199.31 92.73 187.12 104.46 173.92 101.38C159.62 98.05 154.56 80.72 164.32 70.07L165.32 69.12ZM177.1 104.25L179.36 104.23L179.28 107.74H177.03C177.09 107.28 176.92 104.38 177.11 104.25H177.1ZM174.67 110.19H181.61L181.69 114.85H174.59L174.67 110.19ZM174.6 117.27H181.7L181.68 130.13C181.3 134.9 174.71 134.68 174.59 129.88V117.27H174.6Z" fill="#46194F"/>
<path d="M167.49 70.29C157.43 78.85 160.83 95.2 173.59 98.89C186.35 102.58 197.76 90.65 193.98 78.17C190.55 66.87 176.46 62.66 167.5 70.28L167.49 70.29ZM168.66 72.46C176.96 65.03 190.29 69.64 192.11 80.68C193.75 90.59 184.78 98.99 175 96.79C163.84 94.28 160.16 80.06 168.65 72.46H168.66Z" fill="#46194F"/>
<mask id="mask1_842_44" style="mask-type:luminance" maskUnits="userSpaceOnUse" x="179" y="50" width="77" height="56">
<path d="M193.68 68.55L179.36 62.69L188.63 50.97H256V105.99H181.71L180.47 103.21L193.06 97.63C196.83 93.8 198.9 88.79 198.9 82.98C198.9 77.17 197.46 72.38 193.69 68.54L193.68 68.55Z" fill="white"/>
</mask>
<g mask="url(#mask1_842_44)">
<path d="M184.15 69.62H181.47C181.27 68.95 181.21 68.21 181.49 67.55C182.95 67.58 184.7 67.45 184.44 65.53C184.23 63.96 181.95 64.07 180.79 64.39C178.32 65.08 177.9 67.6 178.2 69.83C178.52 72.14 180.88 73.06 182.96 72.97C180.94 75.16 178.81 77.27 178 80.24C177.35 82.63 177.31 90.35 177.61 92.94C177.81 94.63 178.92 95.92 180.25 96.86C180.16 100.1 179.94 104.03 183.84 105.05C185.53 105.49 191.21 105.45 192.75 104.7C193.69 104.24 195.33 102.37 195.33 101.32V97.52H226.05V101.32C226.05 102.37 227.69 104.24 228.63 104.7C230.17 105.46 235.85 105.49 237.54 105.05C241.45 104.03 241.22 100.11 241.13 96.86C242.46 95.92 243.58 94.63 243.77 92.94C244.07 90.35 244.03 82.63 243.38 80.24C242.56 77.25 240.46 75.18 238.42 72.97C240.5 73.06 242.86 72.14 243.18 69.83C243.5 67.52 243.06 65.08 240.59 64.39C239.43 64.07 237.15 63.96 236.94 65.53C236.68 67.45 238.43 67.58 239.89 67.55C240.17 68.21 240.11 68.95 239.91 69.62H237.23C236.67 67.45 236.05 65.23 235.33 63.09C233.48 57.6 230.56 54.21 224.48 53.51C215.48 53.95 205.97 52.95 197.03 53.51C187.76 54.09 186.47 61.87 184.21 69.03C184.15 69.22 184.13 69.43 184.14 69.63L184.15 69.62ZM180.72 87.81V82.96C180.72 78.6 184.53 77.15 185.97 74.19C189.32 67.26 187.75 57.25 198.09 56.63C206.8 56.11 216.17 56.9 224.92 56.8C233.04 58.11 232.74 68.33 235.42 74.34C236.89 76.27 240.52 79.48 240.52 82.06V87.8H232.99C232.42 87.8 231.58 86.93 231.46 86.35C231.35 85.81 231.35 84.12 231.42 83.55C231.72 81.03 235.74 82.05 237.47 81.84C239.18 81.64 239.33 78.94 237.32 78.7C236.1 78.55 232.73 78.6 231.61 78.96C227.3 80.35 226.94 87.55 230.31 90.04C230.61 90.26 231.94 90.94 232.25 90.94H240.53C240.48 91.65 240.66 92.45 240.39 93.11C240.28 93.38 239.49 94.22 239.26 94.22H222.33V88.78C222.33 88.24 221.69 87.41 221.11 87.31L200.63 87.21C200.09 87.14 199.07 88.04 199.07 88.48V94.22H182.14C182.14 94.22 181.47 93.85 181.39 93.78C180.9 93.32 180.55 91.82 180.75 91.19L180.95 90.94H189.15C190.83 90.94 192.93 88.31 193.1 86.69C193.44 83.58 193.08 80.05 189.67 78.94C188.62 78.6 185.09 78.57 183.93 78.71C182.08 78.93 182.08 81.63 183.93 81.85C185.54 82.04 188.71 81.23 189.65 82.84C190.17 83.72 190.15 86.16 189.52 86.99C189.37 87.19 188.58 87.81 188.4 87.81H180.72ZM202.34 90.5H219.04V94.23H202.34V90.5Z" fill="#46194F"/>
<path d="M230.12 69.66L191.53 69.62C189.17 69.89 189.61 73.05 191.97 72.91H229.41C231.62 73 232.24 70.31 230.12 69.66Z" fill="#46194F"/>
<path d="M224.3 78.75L196.98 78.8C195.73 79.49 195.77 81.04 197.01 81.74L223.89 81.86C225.56 81.57 225.85 79.48 224.3 78.76V78.75Z" fill="#46194F"/>
</g>
<mask id="mask2_842_44" style="mask-type:luminance" maskUnits="userSpaceOnUse" x="100" y="50" width="79" height="57">
<path d="M162.66 69.06L170.35 64.12L173.49 52.06L100.09 50.98V106L178.64 106.43L176.01 102.81L168.64 101.89L163.03 97.65C159.26 93.82 157.19 88.81 157.19 83C157.19 77.19 158.89 72.91 162.66 69.07V69.06Z" fill="white"/>
</mask>
<g mask="url(#mask2_842_44)">
<path d="M171.93 69.62H174.61C174.81 68.95 174.87 68.21 174.59 67.55C173.13 67.58 171.38 67.45 171.64 65.53C171.85 63.96 174.13 64.07 175.29 64.39C177.76 65.08 178.18 67.6 177.88 69.83C177.56 72.14 175.2 73.06 173.12 72.97C175.14 75.16 177.27 77.27 178.08 80.24C178.73 82.63 178.77 90.35 178.47 92.94C178.27 94.63 177.16 95.92 175.83 96.86C175.92 100.1 176.14 104.03 172.24 105.05C170.55 105.49 164.87 105.45 163.33 104.7C162.39 104.24 160.75 102.37 160.75 101.32V97.52H130.03V101.32C130.03 102.37 128.39 104.24 127.45 104.7C125.91 105.46 120.23 105.49 118.54 105.05C114.63 104.03 114.86 100.11 114.95 96.86C113.62 95.92 112.5 94.63 112.31 92.94C112.01 90.35 112.05 82.63 112.7 80.24C113.52 77.25 115.62 75.18 117.66 72.97C115.58 73.06 113.22 72.14 112.9 69.83C112.58 67.52 113.02 65.08 115.49 64.39C116.65 64.07 118.93 63.96 119.14 65.53C119.4 67.45 117.65 67.58 116.19 67.55C115.91 68.21 115.97 68.95 116.17 69.62H118.85C119.41 67.45 120.03 65.23 120.75 63.09C122.6 57.6 125.52 54.21 131.6 53.51C140.6 53.95 150.11 52.95 159.05 53.51C168.32 54.09 169.61 61.87 171.87 69.03C171.93 69.22 171.95 69.43 171.94 69.63L171.93 69.62ZM175.36 87.81V82.96C175.36 78.6 171.55 77.15 170.11 74.19C166.76 67.26 168.33 57.25 157.99 56.63C149.28 56.11 139.91 56.9 131.16 56.8C123.04 58.11 123.34 68.33 120.66 74.34C119.19 76.27 115.56 79.48 115.56 82.06V87.8H123.09C123.66 87.8 124.5 86.93 124.62 86.35C124.73 85.81 124.73 84.12 124.66 83.55C124.36 81.03 120.34 82.05 118.61 81.84C116.88 81.63 116.75 78.94 118.76 78.7C119.98 78.55 123.35 78.6 124.47 78.96C128.78 80.35 129.14 87.55 125.77 90.04C125.47 90.26 124.14 90.94 123.83 90.94H115.55C115.6 91.65 115.42 92.45 115.69 93.11C115.8 93.38 116.59 94.22 116.82 94.22H133.75V88.78C133.75 88.24 134.39 87.41 134.97 87.31L155.45 87.21C155.99 87.14 157.01 88.04 157.01 88.48V94.22H173.94C173.94 94.22 174.61 93.85 174.69 93.78C175.18 93.32 175.53 91.82 175.33 91.19L175.13 90.94H166.93C165.25 90.94 163.15 88.31 162.98 86.69C162.64 83.58 163 80.05 166.41 78.94C167.46 78.6 170.99 78.57 172.15 78.71C174 78.93 174 81.63 172.15 81.85C170.54 82.04 167.37 81.23 166.43 82.84C165.91 83.72 165.93 86.16 166.56 86.99C166.71 87.19 167.5 87.81 167.68 87.81H175.36ZM153.74 90.5H137.04V94.23H153.74V90.5Z" fill="#46194F"/>
<path d="M125.96 69.66L164.55 69.62C166.91 69.89 166.47 73.05 164.11 72.91H126.67C124.46 73 123.84 70.31 125.96 69.66Z" fill="#46194F"/>
<path d="M131.78 78.75L159.1 78.8C160.35 79.49 160.31 81.04 159.07 81.74L132.19 81.86C130.52 81.57 130.23 79.48 131.78 78.76V78.75Z" fill="#46194F"/>
</g>
<path d="M248.84 111.85C248.84 113.098 249.852 114.11 251.1 114.11C252.348 114.11 253.36 113.098 253.36 111.85C253.36 110.602 252.348 109.59 251.1 109.59C249.852 109.59 248.84 110.602 248.84 111.85Z" fill="#46194F" stroke="#46194F"/>
<path d="M84.3899 137.13C84.3899 138.378 85.4018 139.39 86.6499 139.39C87.8981 139.39 88.9099 138.378 88.9099 137.13C88.9099 135.882 87.8981 134.87 86.6499 134.87C85.4018 134.87 84.3899 135.882 84.3899 137.13Z" fill="#46194F" stroke="#46194F"/>
<path d="M104.12 277.67C104.12 278.918 105.132 279.93 106.38 279.93C107.628 279.93 108.64 278.918 108.64 277.67C108.64 276.422 107.628 275.41 106.38 275.41C105.132 275.41 104.12 276.422 104.12 277.67Z" fill="#46194F" stroke="#46194F"/>
<defs>
<clipPath id="clip0_842_44">
<rect width="78.33" height="86.78" fill="white" transform="translate(16 160)"/>
</clipPath>
</defs>
</svg>
