<svg width="65" height="24" viewBox="0 0 65 24" fill="none" xmlns="http://www.w3.org/2000/svg">
<g clip-path="url(#clip0_827_351)">
<path d="M57.7003 20.7218C55.8515 24.6311 49.9467 24.5196 47.9864 20.7218L18.1276 20.69C15.7768 25.0053 9.30623 24.4082 7.85592 19.7027C6.27812 19.0101 4.12656 18.6996 2.62047 17.9671C1.87141 17.6008 0.779698 16.1199 0.668136 15.2919C0.500792 13.9941 0.476886 9.29667 0.692042 8.05463C0.811573 7.34603 1.28173 6.81259 1.77579 6.33488C1.90329 6.21545 2.15829 6.15176 2.18219 6.11195C2.27782 5.98456 1.99094 5.48297 2.08657 5.11673C2.21407 4.6231 2.7161 4.32055 3.21016 4.34443C4.70031 4.41609 6.57296 5.27596 8.11889 5.268C11.2665 4.03392 14.3265 2.52914 17.4742 1.31099C18.5101 0.912898 19.4903 0.474999 20.6138 0.395382C24.909 0.0689479 29.5946 0.650159 33.9376 0.395382C38.5036 1.40653 42.3286 4.9336 46.4644 7.0594L51.7237 7.53711C54.6244 7.9989 57.7242 8.4368 60.5132 9.40017C64.4817 10.7776 64.912 14.1852 64.5454 17.9671C64.2028 21.5021 60.1945 20.5546 57.7003 20.7139V20.7218Z" fill="#C5AECB"/>
<path d="M57.7003 20.7218C55.8515 24.6311 49.9467 24.5196 47.9864 20.7218L18.1276 20.69C15.7768 25.0053 9.30623 24.4082 7.85592 19.7027C6.27812 19.0101 4.12656 18.6996 2.62047 17.9671C1.87141 17.6008 0.779698 16.1199 0.668136 15.2919C0.500792 13.9941 0.476886 9.29667 0.692042 8.05463C0.811573 7.34603 1.28173 6.81259 1.77579 6.33488C1.90329 6.21545 2.15829 6.15176 2.18219 6.11195C2.27782 5.98456 1.99094 5.48297 2.08657 5.11673C2.21407 4.6231 2.7161 4.32055 3.21016 4.34443C4.70031 4.41609 6.57296 5.27596 8.11889 5.268C11.2665 4.03392 14.3265 2.52914 17.4742 1.31099C18.5101 0.912898 19.4903 0.474999 20.6138 0.395382C24.909 0.0689479 29.5946 0.650159 33.9376 0.395382C38.5036 1.40653 42.3286 4.9336 46.4644 7.0594L51.7237 7.53711C54.6244 7.9989 57.7242 8.4368 60.5132 9.40017C64.4817 10.7776 64.912 14.1852 64.5454 17.9671C64.2028 21.5021 60.1945 20.5546 57.7003 20.7139V20.7218ZM63.1509 13.1422H61.1189C60.9276 13.1422 60.0271 12.8874 59.804 12.776C58.8079 12.3062 57.9872 11.0403 58.1067 9.92565C56.1623 9.57533 54.2498 9.07374 52.2816 8.81896C50.3053 8.56418 48.3131 8.55622 46.3369 8.31737C42.225 6.28711 38.4957 2.91927 34.089 1.66131C29.6902 1.90016 24.9887 1.35876 20.6298 1.66131C20.072 1.70112 19.6576 1.80462 19.1237 1.97978C15.5218 3.15812 11.8801 5.27596 8.2703 6.54189L3.60859 5.72979C4.6764 7.02756 3.00297 6.8524 2.41329 7.40176C2.18219 7.61673 2.12641 7.9352 1.92719 8.17406C2.80375 8.19794 3.64844 8.42087 3.75203 9.43202C3.91141 10.9129 3.86359 12.6327 1.92719 12.4416L1.99094 14.4081L7.87983 15.8015C8.18264 15.7537 8.64483 14.7983 8.9317 14.4639C11.9997 10.8413 18.1276 12.6247 18.7731 17.3062L19.3867 17.4575L47.2294 17.4814C47.4127 17.4416 47.572 16.3429 47.6677 16.0801C49.6519 10.7218 57.9154 11.733 58.3856 17.4814L63.2864 17.346L63.1429 13.1502L63.1509 13.1422ZM2.49297 9.50368H1.93516V11.1836H2.49297V9.50368ZM62.1707 11.8843C61.5492 10.9448 60.3698 10.6661 59.3737 10.3476C59.5251 11.7489 60.9754 12.0355 62.1707 11.8843ZM12.5415 13.7394C9.20264 14.2011 7.67264 18.1263 9.77639 20.7696C11.9678 23.5164 16.2948 22.7362 17.3467 19.3763C18.3348 16.2234 15.8007 13.2855 12.5415 13.7394ZM52.1859 13.7394C46.8867 14.4718 47.3967 23.1024 53.6761 22.3699C58.8797 21.7569 58.2103 12.9113 52.1859 13.7394ZM7.52921 18.3253C7.52921 17.991 7.87186 17.1948 7.52921 16.9878L2.19813 15.8094C2.39735 16.2871 2.78782 16.6773 3.21813 16.9559L7.52124 18.3253H7.52921ZM18.5978 19.44H47.4525L47.2294 18.7314L18.9404 18.596L18.7412 18.612L18.5978 19.448V19.44ZM63.1509 18.604H58.6007C58.3139 18.8031 58.3856 19.1295 58.3936 19.44H62.107C62.3779 19.44 63.0393 18.8906 63.1589 18.604H63.1509Z" fill="#46194F"/>
<path d="M20.3899 2.82324L34.3033 2.84713C37.0525 3.61146 39.3315 5.62579 41.8496 6.92357C42.79 7.60828 42.527 8.81847 41.4751 9.20064L18.6607 9.23249C17.1785 9.01752 16.2382 8.89013 15.0907 7.90287C14.2938 7.21815 13.0188 5.95223 14.4372 5.14012C15.3138 4.63853 17.1785 3.94586 18.1825 3.56369C18.9077 3.28503 19.6249 2.99044 20.3899 2.82324ZM29.1076 4.0414H21.0513C20.366 5.25955 20.0791 6.70064 19.4416 7.9586H29.1076V4.0414ZM34.2156 4.0414C33.0123 3.8742 31.4664 4.16879 30.2233 4.0414V7.9586H41.0129L35.7854 4.71815C35.379 4.51114 34.6379 4.10509 34.2236 4.0414H34.2156ZM19.5771 4.32802L15.0986 6.21497C15.9433 7.20223 16.8358 7.8551 18.1905 7.90287L19.585 4.32006L19.5771 4.32802Z" fill="#46194F"/>
<path d="M10.939 20.3706C10.2457 19.6779 9.96677 18.6588 10.0544 17.6875C10.3413 14.4152 15.0907 13.8897 16.1425 16.9231C17.3139 20.291 13.218 22.6477 10.939 20.3706Z" fill="#46194F"/>
<path d="M52.0416 14.9971C54.8386 14.5274 56.9185 16.8602 55.7072 19.4956C54.4163 22.2981 50.0415 21.5815 49.7148 18.3809C49.5713 16.9637 50.5754 15.244 52.0496 14.9971H52.0416Z" fill="#46194F"/>
</g>
<defs>
<clipPath id="clip0_827_351">
<rect width="64.1084" height="23.3121" fill="white" transform="translate(0.547729 0.299805)"/>
</clipPath>
</defs>
</svg>
