<svg width="33" height="42" viewBox="0 0 33 42" fill="none" xmlns="http://www.w3.org/2000/svg">
<path d="M28.1862 7.61142C25.0733 6.44192 22.1552 4.75229 19.5444 2.60391L16.3829 0L13.8907 2.15162C11.0578 4.59399 7.8415 6.48715 4.38783 7.74388L0 9.33336V18.2661C0 28.6721 6.1101 38.041 15.3392 41.5236C15.9964 41.7659 16.3829 41.8757 16.3829 41.8757C16.3829 41.8757 17.1375 41.6528 18.312 41.1488C27.0786 37.3884 32.7748 28.2876 32.7748 18.2564V9.33013L28.1862 7.60496V7.61142ZM28.5909 18.9446C28.5909 26.4171 24.3491 33.195 17.8191 35.9927C16.9458 36.3675 16.3829 36.5322 16.3829 36.5322C16.3829 36.5322 16.0968 36.4482 15.6069 36.2673C8.73306 33.6763 4.18396 26.6949 4.18396 18.9478V12.2959L7.44897 11.1102C10.0202 10.1766 12.418 8.76476 14.5267 6.94591L16.3829 5.3435L18.738 7.28189C20.6824 8.88107 22.8551 10.141 25.1737 11.0133L28.5909 12.2959V18.9413V18.9446Z" fill="#46194F"/>
<path d="M15.0715 27.7035L8.18848 21.352L10.0385 19.0906L14.8007 23.481L22.4596 14.1768L24.5835 16.1507L15.0715 27.7035Z" fill="#46194F"/>
</svg>
