<svg width="33" height="33" viewBox="0 0 33 33" fill="none" xmlns="http://www.w3.org/2000/svg">
<path d="M20.5142 0L22.0542 0.205004C27.1744 1.1324 31.3627 5.08605 32.5104 10.1331L32.8635 12.2905C32.834 12.8567 32.9027 13.4424 32.8635 13.9988C32.2848 22.9507 22.9173 28.847 14.5504 25.2253C14.109 25.03 13.3635 24.5322 13.0006 24.415C12.775 24.3467 12.5298 24.3662 12.363 24.5419C10.058 26.6408 7.9687 29.1789 5.65382 31.2289C2.4071 34.099 -1.24178 31.1509 1.00444 27.617L8.34143 20.2173C8.37086 20.0611 8.37086 19.9049 8.32182 19.7487C8.21392 19.3875 7.70386 18.6554 7.50769 18.2063C3.87842 9.89877 9.80295 0.575964 18.7976 0H20.5142ZM19.4843 3.43626C11.8334 3.57293 7.3017 12.066 11.4704 18.4699C15.2272 24.2393 23.8099 24.3369 27.6942 18.6456C32.1376 12.144 27.3803 3.29959 19.4843 3.43626Z" fill="#46194F"/>
<path d="M19.6705 5.28148C20.7396 5.21315 22.9172 5.44744 23.8196 6.06245C24.5847 6.57984 24.6141 7.71224 23.8883 8.27845C23.0937 8.90322 22.3973 8.34678 21.5832 8.1613C19.3566 7.65367 16.9142 8.47369 15.5606 10.3187C15.0701 10.9825 14.7366 12.2321 13.8538 12.359C12.7062 12.5347 11.9607 11.5976 12.3138 10.5042C13.2457 7.61462 16.7376 5.47672 19.6705 5.28148Z" fill="#46194F"/>
</svg>
