<svg width="44" height="44" viewBox="0 0 44 44" fill="none" xmlns="http://www.w3.org/2000/svg">
<path d="M36.5072 7.01392V8.50707H38.3943C40.2893 8.50707 42.3458 10.8079 42.3852 12.6753L43.5317 28.5524C43.6578 30.2819 42.9053 31.7751 41.6012 32.8545C42.6571 33.5125 43.4293 34.6629 43.5277 35.9275C43.6065 36.9558 42.8698 39.9894 42.5389 41.0767C42.0858 42.5778 41.0457 43.4957 39.4541 43.606C35.1992 43.9015 30.5936 43.3854 26.2993 43.5903C25.1174 43.4485 24.0458 42.6526 23.6125 41.5416C23.2303 40.5685 22.3872 36.7982 22.4739 35.8369C22.5881 34.6156 23.3879 33.4928 24.4004 32.8545C23.0491 31.7199 22.4345 30.4198 22.466 28.639C22.5645 23.3716 23.4982 17.8954 23.6203 12.5965C23.6755 10.7567 25.7399 8.50707 27.6034 8.50707H29.4905V7.01392C27.7452 6.77359 27.0873 5.26862 27.5798 3.65727C28.0328 2.17988 28.7577 0.304571 30.507 0.0918258C31.6455 -0.0460645 34.0645 -0.010607 35.2386 0.0800066C35.8886 0.127283 36.6648 0.442461 37.1218 0.919167C37.5551 1.37224 38.5085 3.64151 38.5913 4.27581C38.7646 5.59956 37.8664 6.93118 36.5072 7.01786V7.01392ZM30.6055 1.50619C30.2942 1.56134 29.9475 1.81348 29.7663 2.06957C29.5457 2.38474 28.7735 4.34278 28.7814 4.68554C28.7971 5.2962 29.3132 5.64683 29.8805 5.70199C31.8819 5.8911 34.167 5.55622 36.1999 5.70199C37.2833 5.46167 37.3069 4.85101 37.0114 3.92517C36.7002 2.95206 36.3062 1.5968 35.1519 1.48649C34.2576 1.40375 31.421 1.36042 30.6055 1.51013V1.50619ZM35.1007 7.10059H30.8891V8.50313H35.1007V7.10059ZM38.347 16.9302L38.9695 10.1302L38.0437 9.90567C34.7737 10.083 31.2792 9.68111 28.0328 9.90567C27.8358 9.91749 27.0006 9.99629 26.9691 10.213L27.6428 16.9302H38.347ZM25.7123 11.2255C25.5114 11.1743 25.5666 11.2649 25.5114 11.3358C25.2356 11.6864 25.0702 12.3168 25.0111 12.762L23.8646 29.1709C23.9907 30.7232 25.0977 32.0902 26.6736 32.2833C26.7051 26.7913 26.5988 21.3033 26.1457 15.835C26.0196 14.2985 25.7793 12.7698 25.7084 11.2294L25.7123 11.2255ZM40.4508 11.2255L40.2775 11.2688C40.2696 12.1553 40.1002 13.0259 40.0135 13.9005C39.6471 17.6669 39.4974 21.4372 39.4029 25.2233C39.3989 25.4321 39.3122 25.6212 39.3083 25.83V32.2833C40.8645 32.0942 41.9519 30.7744 42.1173 29.2536L40.9787 12.762C40.9275 12.1868 40.7148 11.7258 40.4508 11.2255ZM38.2603 18.3327H27.7334L27.9974 24.6481H38.0003L38.2643 18.3327H38.2603ZM37.9097 26.0546H28.084V28.9936C28.4386 29.3088 28.8917 29.4821 29.3566 29.5649C31.6692 29.427 34.1827 29.7461 36.4678 29.5649C37.0114 29.5215 37.5039 29.3521 37.9136 28.9897V26.0506L37.9097 26.0546ZM37.9097 30.7035C37.4448 30.7941 37.039 30.9359 36.5544 30.9714C34.6122 31.1093 31.2792 31.1329 29.3526 30.9714C28.9153 30.9359 28.5174 30.7468 28.084 30.7035V32.37H37.9097V30.7035ZM25.9566 33.7961C25.0898 33.9734 24.3886 34.4817 24.0655 35.3248C24.2901 35.9906 25.1608 36.5106 25.8423 36.5815H40.1435C40.8881 36.4673 41.5855 36.0615 41.9243 35.3838C41.6761 34.4501 40.7936 33.9104 39.8796 33.7764L25.9526 33.8001L25.9566 33.7961ZM41.8573 37.4601C41.3097 37.7674 40.6951 37.9447 40.0647 37.9919C35.4631 38.315 30.4873 37.7398 25.8423 37.9919C25.2671 37.9171 24.6683 37.791 24.1798 37.464C24.1128 37.4443 24.1364 37.531 24.1325 37.598C24.1207 37.9801 24.7589 40.7025 24.9362 41.0964C25.1765 41.6401 25.6847 41.9908 26.2363 42.1641L39.4501 42.2074C40.1396 42.1444 40.7818 41.7347 41.0615 41.0964C41.3412 40.4582 41.7115 38.6105 41.8376 37.8383C41.8573 37.7162 41.8691 37.5901 41.8612 37.468L41.8573 37.4601Z" fill="#46194F"/>
<path d="M14.0463 7.01392V8.50707H15.9334C17.8284 8.50707 19.8849 10.8079 19.9243 12.6753L21.0708 28.5524C21.1969 30.2819 20.4444 31.7751 19.1403 32.8545C20.1962 33.5125 20.9684 34.6629 21.0668 35.9275C21.1456 36.9558 20.4089 39.9894 20.078 41.0767C19.6249 42.5778 18.5848 43.4957 16.9932 43.606C12.7383 43.9015 8.13274 43.3854 3.83844 43.5903C2.65652 43.4485 1.58492 42.6526 1.15155 41.5416C0.777277 40.5843 -0.0579441 36.8731 0.0129709 35.9275C0.111464 34.6432 0.883649 33.5401 1.93949 32.8545C0.584231 31.7554 -0.0303661 30.3883 0.00115172 28.639C0.0996448 23.3716 1.03336 17.8954 1.15549 12.5965C1.21065 10.7567 3.27506 8.50707 5.13855 8.50707H7.02568V7.01392C5.28038 6.77359 4.62245 5.26862 5.11491 3.65727C5.56798 2.17988 6.29289 0.304571 8.04606 0.0918258C9.18464 -0.0460645 11.6036 -0.010607 12.7777 0.0800066C13.4277 0.127283 14.2038 0.442461 14.6609 0.919167C15.1179 1.39587 16.0476 3.64151 16.1304 4.27581C16.3037 5.59956 15.4055 6.93118 14.0463 7.01786V7.01392ZM8.14456 1.50619C7.83332 1.56134 7.48662 1.81348 7.3054 2.06957C7.08477 2.38474 6.31259 4.34278 6.32047 4.68554C6.33623 5.2962 6.85233 5.64683 7.41965 5.70199C9.42103 5.8911 11.7061 5.55622 13.739 5.70199C14.8224 5.46167 14.846 4.85101 14.5505 3.92517C14.2393 2.95206 13.8453 1.5968 12.691 1.48649C11.7967 1.40375 8.96008 1.36042 8.14456 1.51013V1.50619ZM12.6398 7.10059H8.42822V8.50313H12.6398V7.10059ZM15.8861 16.9302L16.5086 10.1302L15.5828 9.90567C12.3128 10.083 8.81825 9.68111 5.57192 9.90567C5.37493 9.91749 4.53971 9.99629 4.50819 10.213L5.18189 16.9302H15.8861ZM3.25142 11.2255C3.0505 11.1743 3.10565 11.2649 3.0505 11.3358C2.77472 11.6864 2.60925 12.3168 2.55015 12.762L1.40369 29.1709C1.52976 30.7232 2.63683 32.0902 4.21271 32.2833C4.24423 26.7913 4.13786 21.3033 3.68479 15.835C3.55872 14.2985 3.3184 12.7698 3.24748 11.2294L3.25142 11.2255ZM17.9899 11.2255L17.8166 11.2688C17.8087 12.1553 17.6393 13.0259 17.5526 13.9005C17.1862 17.6669 17.0365 21.4372 16.942 25.2233C16.938 25.4321 16.8513 25.6212 16.8474 25.83V32.2833C18.4036 32.0942 19.491 30.7744 19.6564 29.2536L18.5178 12.762C18.4666 12.1868 18.2539 11.7258 17.9899 11.2255ZM15.7994 18.3327H5.2725L5.53646 24.6481H15.5394L15.8034 18.3327H15.7994ZM15.4488 26.0546H5.62314V28.9936C5.97771 29.3088 6.43078 29.4821 6.89567 29.5649C9.20828 29.427 11.7218 29.7461 14.0069 29.5649C14.5505 29.5215 15.043 29.3521 15.4527 28.9897V26.0506L15.4488 26.0546ZM15.4488 30.7035C14.9839 30.7941 14.5781 30.9359 14.0935 30.9714C12.1513 31.1093 8.81825 31.1329 6.89173 30.9714C6.45442 30.9359 6.0565 30.7468 5.62314 30.7035V32.37H15.4488V30.7035ZM3.49568 33.7961C2.62895 33.9734 1.92768 34.4817 1.60462 35.3248C1.82918 35.9906 2.69986 36.5106 3.38143 36.5815H17.6826C18.4272 36.4673 19.1246 36.0615 19.4634 35.3838C19.2152 34.4501 18.3327 33.9104 17.4187 33.7764L3.49174 33.8001L3.49568 33.7961ZM19.3964 37.4601C18.8488 37.7674 18.2342 37.9447 17.6038 37.9919C13.0022 38.315 8.02637 37.7398 3.38143 37.9919C2.80623 37.9171 2.2074 37.791 1.71887 37.464C1.6519 37.4443 1.67553 37.531 1.67159 37.598C1.65977 37.9801 2.29801 40.7025 2.4753 41.0964C2.71562 41.6401 3.22384 41.9908 3.77541 42.1641L16.9892 42.2074C17.6787 42.1444 18.3209 41.7347 18.6006 41.0964C18.8803 40.4582 19.2506 38.6105 19.3767 37.8383C19.3964 37.7162 19.4082 37.5901 19.4003 37.468L19.3964 37.4601Z" fill="#46194F"/>
</svg>
