<svg width="37" height="46" viewBox="0 0 37 46" fill="none" xmlns="http://www.w3.org/2000/svg">
<path d="M36.25 32.4009V4.06602C36.25 1.8297 34.4388 0.0107422 32.213 0.0107422H4.30804C2.08223 0.0107422 0.270996 1.83054 0.270996 4.06602V35.7348V41.2177C0.270996 43.4549 2.0814 45.2747 4.30721 45.2747H32.2121C34.4388 45.2747 36.25 43.4549 36.25 41.2177V32.4068C36.25 32.4068 36.25 32.4026 36.25 32.4009Z" fill="white"/>
<path d="M4.20196 29.927H32.3184C32.8834 29.927 33.4016 30.1294 33.8036 30.4645V4.1543C33.8036 3.27338 33.0898 2.55957 32.2097 2.55957H4.31145C3.43133 2.55957 2.71753 3.27338 2.71753 4.1543V30.4645C3.11956 30.1294 3.63778 29.927 4.20279 29.927" fill="#005E4B"/>
<path d="M29.4405 5.9026C29.4405 5.64143 29.2265 5.43652 28.954 5.43652C28.6816 5.43652 28.4676 5.64143 28.4676 5.9026C28.4676 6.16377 28.6765 6.36867 28.954 6.36867C29.2315 6.36867 29.4405 6.16881 29.4405 5.9026ZM27.3584 9.77397H30.6357V8.67722C30.6357 8.38078 30.5789 8.17839 30.4502 8.02051C30.3089 7.84752 30.0816 7.75934 29.7731 7.75934H27.3584V9.77397ZM21.0463 12.0279C20.8891 12.0279 20.7353 12.0069 20.574 11.9624L20.4838 11.9381L20.6777 11.2276L20.7679 11.2511C20.8942 11.2839 20.9401 11.2889 21.0262 11.2889C21.348 11.2889 21.455 11.1806 21.455 10.5365V6.58702H22.1939V9.7748H26.6196V6.58702H27.3584V7.02034H29.7731C30.3373 7.02034 30.7084 7.16982 31.0143 7.52085C31.2467 7.7837 31.3754 8.19435 31.3754 8.67722V10.513H22.1128L22.1153 10.5524C22.1429 11.1126 22.0392 11.519 21.8085 11.7609C21.5545 12.0271 21.2118 12.0271 21.0471 12.0271L21.0463 12.0279ZM19.8368 11.4997C19.8368 11.2419 19.6262 11.0403 19.3571 11.0403C19.0879 11.0403 18.8848 11.2419 18.8848 11.4997C18.8848 11.7575 19.0879 11.9515 19.3571 11.9515C19.6262 11.9515 19.8368 11.7617 19.8368 11.4997ZM18.5012 11.4997C18.5012 11.2419 18.2939 11.0403 18.0289 11.0403C17.764 11.0403 17.5559 11.2419 17.5559 11.4997C17.5559 11.7575 17.759 11.9515 18.0289 11.9515C18.2989 11.9515 18.5012 11.7575 18.5012 11.4997ZM14.3454 11.4863C14.3454 11.2293 14.1315 11.0269 13.859 11.0269C13.5865 11.0269 13.3725 11.2285 13.3725 11.4863C13.3725 11.7441 13.5815 11.9523 13.859 11.9523C14.1365 11.9523 14.3454 11.7516 14.3454 11.4863ZM7.24927 5.27613C7.24927 5.02251 7.04199 4.82349 6.77703 4.82349C6.51207 4.82349 6.30479 5.02167 6.30479 5.27613C6.30479 5.53058 6.50789 5.73464 6.77703 5.73464C7.04617 5.73464 7.24927 5.5373 7.24927 5.27613ZM8.58493 5.27613C8.58493 5.02251 8.3743 4.82349 8.10516 4.82349C7.83602 4.82349 7.63292 5.02167 7.63292 5.27613C7.63292 5.53058 7.83602 5.73464 8.10516 5.73464C8.3743 5.73464 8.58493 5.5373 8.58493 5.27613ZM7.29942 7.32602C6.62658 7.32602 5.90025 7.79545 5.90025 8.55377C5.90025 9.39691 6.60318 9.7748 7.29942 9.7748H7.7491V7.32602H7.29942ZM7.39889 10.513C5.74729 10.513 5.16138 9.45737 5.16138 8.55293C5.16138 7.39488 6.13428 6.58618 7.52677 6.58618H7.7491V6.24187H8.48797V9.77313H13.4896V6.58534H14.2284V9.77313H18.8907V6.58534H19.6145V10.5121H7.39889V10.513Z" fill="white"/>
<path d="M31.3746 13.0029H30.6357V18.7747H31.3746V13.0029ZM7.73406 15.5869V18.0357H7.28439C6.58815 18.0357 5.88521 17.6578 5.88521 16.8147C5.88521 16.0564 6.61155 15.5869 7.28439 15.5869H7.73406ZM24.978 15.5869V18.0357H23.8923L23.8839 18.0307C23.4 17.7468 23.1225 17.3009 23.1225 16.808C23.1225 16.0152 23.8154 15.5878 24.4665 15.5878H24.978V15.5869ZM14.7692 17.3101C14.7692 18.0769 14.1825 18.6546 13.4035 18.6546C12.6654 18.6546 12.0871 18.0634 12.0871 17.3101C12.0871 16.5569 12.6654 15.9514 13.4035 15.9514C14.195 15.9514 14.7692 16.5224 14.7692 17.3101ZM14.913 18.7856L14.9238 18.7747H29.2474V13.0029H28.5085V18.0357H25.7169V14.8479H24.6938C23.2905 14.8479 22.3836 15.6172 22.3836 16.808C22.3836 17.2564 22.5257 17.6486 22.8049 17.9736L22.8584 18.0357H19.3437V14.8479H18.6048V18.0357H15.3827L15.3994 17.9862C15.4713 17.7762 15.5073 17.5512 15.5073 17.3177C15.5073 16.1177 14.6029 15.2132 13.4035 15.2132C12.2041 15.2132 11.3473 16.1378 11.3473 17.3177C11.3473 17.5428 11.3833 17.7687 11.4535 17.987L11.4694 18.0365H8.4721V14.5044H7.73323V14.8488H7.5109C6.11841 14.8488 5.14551 15.6575 5.14551 16.8155C5.14551 17.7628 5.76736 18.7755 7.5109 18.7755H11.9241L11.9349 18.7865C12.3236 19.1837 12.8451 19.402 13.4026 19.402C13.9601 19.402 14.5268 19.1778 14.9121 18.7865M25.5246 13.8058C25.5246 13.5521 25.314 13.354 25.0449 13.354C24.7757 13.354 24.5726 13.5521 24.5726 13.8058C24.5726 14.0594 24.7757 14.2643 25.0449 14.2643C25.314 14.2643 25.5246 14.0669 25.5246 13.8058ZM24.1898 13.8058C24.1898 13.5521 23.9817 13.354 23.7168 13.354C23.4518 13.354 23.2445 13.5521 23.2445 13.8058C23.2445 14.0594 23.4476 14.2643 23.7168 14.2643C23.9859 14.2643 24.1898 14.0669 24.1898 13.8058ZM20.0667 19.7614C20.0667 19.5036 19.8561 19.3021 19.5869 19.3021C19.3178 19.3021 19.1147 19.5036 19.1147 19.7614C19.1147 20.0193 19.3178 20.2132 19.5869 20.2132C19.8561 20.2132 20.0667 20.0235 20.0667 19.7614ZM18.731 19.7614C18.731 19.5036 18.5238 19.3021 18.2588 19.3021C17.9938 19.3021 17.7866 19.5036 17.7866 19.7614C17.7866 20.0193 17.9897 20.2132 18.2588 20.2132C18.5279 20.2132 18.731 20.0193 18.731 19.7614ZM7.23424 13.5379C7.23424 13.2843 7.02696 13.0852 6.762 13.0852C6.49704 13.0852 6.28976 13.2843 6.28976 13.5379C6.28976 13.7915 6.49286 13.9964 6.762 13.9964C7.03113 13.9964 7.23424 13.799 7.23424 13.5379ZM8.09013 13.9964C7.82015 13.9964 7.61788 13.799 7.61788 13.5379C7.61788 13.2767 7.82517 13.0852 8.09013 13.0852C8.35508 13.0852 8.56989 13.2843 8.56989 13.5379C8.56989 13.7915 8.36344 13.9964 8.09013 13.9964Z" fill="white"/>
<path d="M31.3747 21.2637H30.6359V27.0355H31.3747V21.2637ZM17.383 24.2818H19.7191C20.0267 24.2818 20.2549 24.37 20.3961 24.543C20.524 24.7 20.5817 24.9024 20.5817 25.1997V26.2965H17.3838V24.2818H17.383ZM26.094 25.5709C26.094 26.3376 25.5072 26.9154 24.7291 26.9154C23.9509 26.9154 23.4126 26.325 23.4126 25.5709C23.4126 24.8168 23.991 24.213 24.7291 24.213C25.5206 24.213 26.094 24.784 26.094 25.5709ZM26.2386 27.0464L26.2494 27.0355H29.2484V21.2637H28.5095V26.2965H26.7083L26.725 26.2469C26.7969 26.037 26.8328 25.8119 26.8328 25.5784C26.8328 24.3784 25.9285 23.474 24.7291 23.474C23.5297 23.474 22.6738 24.3986 22.6738 25.5784C22.6738 25.8043 22.7097 26.0294 22.7799 26.2477L22.7958 26.2965H21.3214V25.1997C21.3214 24.716 21.1935 24.3053 20.9612 24.0433C20.6552 23.6923 20.2841 23.5428 19.72 23.5428H17.3838V23.1087H16.6449V26.2965H14.8663V21.2637H14.1274V27.0355H23.2505L23.2614 27.0464C23.65 27.4436 24.1716 27.6619 24.7291 27.6619C25.2866 27.6619 25.8533 27.4377 26.2386 27.0464ZM19.3865 22.4251C19.3865 22.1639 19.1725 21.959 18.9 21.959C18.6275 21.959 18.4136 22.1639 18.4136 22.4251C18.4136 22.6863 18.6225 22.8912 18.9 22.8912C19.1775 22.8912 19.3865 22.6905 19.3865 22.4251ZM12.1474 22.0598C12.1474 21.7986 11.9334 21.5937 11.6609 21.5937C11.3884 21.5937 11.1745 21.7986 11.1745 22.0598C11.1745 22.3209 11.3834 22.5259 11.6609 22.5259C11.9384 22.5259 12.1474 22.3251 12.1474 22.0598ZM7.74924 23.8477V26.2956H7.29956C6.60332 26.2956 5.90039 25.9186 5.90039 25.0754C5.90039 24.3171 6.62672 23.8477 7.29956 23.8477H7.74924ZM12.2694 23.8477V26.2956H11.1837L11.1753 26.2906C10.6914 26.0067 10.413 25.5608 10.413 25.0679C10.413 24.4758 10.8844 23.8477 11.7579 23.8477H12.2694ZM13.0083 27.0355V23.1087H11.9852C10.5819 23.1087 9.67415 23.8779 9.67415 25.0687C9.67415 25.5171 9.81624 25.9093 10.0954 26.2343L10.1489 26.2965H8.48895V22.7652H7.75007V23.1095H7.52774C6.13526 23.1095 5.16235 23.9182 5.16235 25.0763C5.16235 26.0235 5.78337 27.0363 7.52774 27.0363H13.0083V27.0355ZM7.24941 21.7986C7.24941 21.545 7.04213 21.3468 6.77717 21.3468C6.51221 21.3468 6.30493 21.545 6.30493 21.7986C6.30493 22.0522 6.50803 22.258 6.77717 22.258C7.04631 22.258 7.24941 22.0606 7.24941 21.7986ZM8.1053 22.2571C7.83533 22.2571 7.63222 22.0598 7.63222 21.7978C7.63222 21.5358 7.84034 21.346 8.1053 21.346C8.37026 21.346 8.58507 21.5442 8.58507 21.7978C8.58507 22.0514 8.37862 22.2571 8.1053 22.2571Z" fill="white"/>
<path d="M32.214 42.7261H4.30738C3.42892 42.7261 2.7168 42.0106 2.7168 41.128V32.3649C2.7168 31.4823 3.42892 30.7668 4.30738 30.7668H32.2131C33.0916 30.7668 33.8037 31.4823 33.8037 32.3649V41.128C33.8037 42.0106 33.0916 42.7261 32.2131 42.7261" fill="#D19E2C"/>
<path d="M9.5429 38.9688L11.4235 32.5957H14.0605C13.1854 35.2368 11.309 40.8969 11.2873 40.8969H7.79769C7.77679 40.8969 5.89953 35.2368 5.02441 32.5957H7.66145L9.54206 38.9688H9.5429Z" fill="white"/>
<path d="M31.4909 32.5967H22.7515L23.4109 34.5005H26.2043V40.8953H28.7101V34.5005H31.4959L31.4909 32.5967Z" fill="white"/>
<path d="M22.6302 35.6365L22.3635 35.052C20.9919 35.9539 18.7177 38.6731 18.7177 38.6731L17.8835 37.7275L17.5809 38.7529L17.5425 38.9032C17.8601 39.3609 18.731 40.896 18.731 40.896C20.7378 37.2245 22.631 35.6365 22.631 35.6365" fill="#005E4B"/>
<path d="M18.4135 34.524L19.2719 37.4338C19.7951 36.8535 20.4847 36.1221 21.1458 35.5216C20.6009 33.8866 20.1679 32.5967 20.1579 32.5967H16.6683C16.6474 32.5967 14.7701 38.2568 13.895 40.8979H16.5321L18.4127 34.5248L18.4135 34.524Z" fill="white"/>
<path d="M19.9255 39.6482L20.2941 40.897H22.9312C22.6094 39.9262 22.153 38.5473 21.7025 37.1919C21.2044 37.7848 20.5867 38.5985 19.9255 39.6474" fill="white"/>
</svg>
