<svg width="42" height="42" viewBox="0 0 42 42" fill="none" xmlns="http://www.w3.org/2000/svg">
<path d="M40.1487 18.9579H20.5877C19.5652 18.9579 18.7363 19.7789 18.7363 20.7916V40.1662C18.7363 41.179 19.5652 42 20.5877 42H40.1487C41.1712 42 42.0001 41.179 42.0001 40.1662V20.7916C42.0001 19.7789 41.1712 18.9579 40.1487 18.9579Z" fill="#46194F"/>
<path d="M21.1902 0C22.3818 0.320076 23.1796 1.20362 23.2907 2.44392L23.2166 16.2272C22.9675 16.8607 22.0216 16.6573 22.0048 15.9738L21.9981 2.28054C21.9207 1.65039 21.2777 1.20695 20.6651 1.19695L2.32267 1.22029C1.70329 1.35699 1.28589 1.8171 1.21183 2.44392V20.4715C1.21856 21.0817 1.66627 21.7152 2.30248 21.7919H16.0534C17.0599 21.8552 16.9825 23.0955 15.976 23.0755H2.46742C1.2152 22.9588 0.323155 22.1686 0 20.9883V2.00381C0.336619 0.976899 0.989661 0.333413 2.02308 0H21.1902Z" fill="#46194F"/>
<path d="M14.7608 15.1436H8.59725C8.34479 15.2303 7.81293 17.3908 7.4965 17.7376C7.2676 17.991 6.96801 17.991 6.68862 17.8109C6.24765 17.5275 6.47655 17.0874 6.60446 16.694C7.62779 13.4766 9.21326 9.70232 10.5092 6.54157C10.9031 5.58134 11.3171 4.47774 12.4448 5.62468L16.8613 17.1974C16.9218 17.8543 16.252 18.2077 15.7807 17.7009C15.4643 17.3608 14.8887 15.227 14.7641 15.1436H14.7608ZM14.2053 13.85L11.6571 7.04169L9.02812 13.85H14.2053Z" fill="#46194F"/>
<path d="M14.2894 33.3746C14.0167 32.9212 13.1011 32.6578 13.0103 32.111C12.9362 31.6675 13.4007 31.3174 13.8282 31.4675L16.7602 33.688C16.8141 33.8714 16.8309 34.0714 16.7535 34.2515C16.6895 34.4048 14.414 36.1186 14.1211 36.2886C13.6869 36.5387 13.1584 36.6387 13.0271 36.0186C12.879 35.3151 13.9528 35.075 14.2894 34.5749H11.7412C11.1252 34.5749 9.88306 34.0048 9.3613 33.648C6.50003 31.6809 7.2406 28.4968 7.18674 25.5027C7.31129 24.9459 8.10234 24.8526 8.34807 25.3594C8.61737 27.9266 7.60078 30.874 10.0547 32.6378C10.4957 32.9545 11.5325 33.3713 12.061 33.3713H14.286L14.2894 33.3746Z" fill="#46194F"/>
<path d="M27.2291 7.66185H29.7773C30.538 7.66185 31.9384 8.37535 32.5241 8.86547C34.9915 10.926 34.2543 13.9 34.3284 16.7373C34.2038 17.2941 33.4128 17.3875 33.167 16.8807C32.8944 14.3434 33.8941 11.5361 31.595 9.70567C31.117 9.32558 30.0567 8.86547 29.4508 8.86547H27.2257C27.4984 9.31891 28.414 9.5823 28.5049 10.1291C28.5789 10.5725 28.1144 10.9226 27.6869 10.7726L24.7549 8.55206C24.7011 8.36868 24.6842 8.16863 24.7617 7.98859C24.8256 7.83522 27.1012 6.12148 27.394 5.95144C27.8283 5.70138 28.3567 5.60135 28.488 6.2215C28.6361 6.925 27.5623 7.16506 27.2257 7.66518L27.2291 7.66185Z" fill="#46194F"/>
<path d="M34.6887 35.5151L32.5343 36.9254C31.3528 36.9254 30.4372 36.8788 29.7909 36.7821C28.6733 36.6187 27.8082 36.292 27.2023 35.8018C26.4348 35.1884 26.051 34.3082 26.051 33.1612C26.051 32.4644 26.1587 31.8376 26.3742 31.2808C26.5492 30.824 26.8017 30.3939 27.1316 29.9905C27.2898 29.8004 27.5692 29.5103 27.9664 29.1202C27.4211 28.8502 27.0441 28.6168 26.832 28.4201C26.3674 27.9866 26.1352 27.4398 26.1352 26.7764C26.1352 26.1795 26.3876 25.5961 26.8926 25.0226C27.4716 24.3658 28.1717 24.0357 28.9964 24.0357C29.3667 24.0357 29.7572 24.1424 30.1712 24.3558C30.4506 24.4958 30.7974 24.7292 31.2181 25.056C30.6627 25.056 30.0905 25.0926 29.5047 25.166C28.7507 25.2627 28.1381 25.3994 27.6735 25.5794C27.1046 25.7995 26.8219 26.0695 26.8219 26.3896C26.8219 26.733 27.1484 27.0598 27.8014 27.3698C28.3535 27.6299 28.9762 27.8133 29.6764 27.92C30.2453 27.6166 30.7974 27.3565 31.3359 27.1431C31.9385 26.9064 32.5612 26.7097 33.2109 26.553L32.8541 27.87C31.6726 28.3267 30.8209 28.6735 30.2992 28.9169C29.2422 29.4103 28.4343 29.9171 27.8721 30.4372C27.1518 31.1007 26.7916 31.8142 26.7916 32.5711C26.7916 33.3279 27.0912 33.9881 27.6937 34.4449C28.2155 34.8383 28.9863 35.1183 30.0029 35.2817C30.8108 35.4117 31.8375 35.4751 33.0864 35.4751C33.3523 35.4751 33.6216 35.4751 33.8875 35.4651C34.1535 35.4551 34.4228 35.4551 34.6887 35.4484V35.5251V35.5151Z" fill="white"/>
</svg>
