<svg width="42" height="42" viewBox="0 0 42 42" fill="none" xmlns="http://www.w3.org/2000/svg">
<path d="M40.1492 18.9578H20.5929C19.5706 18.9578 18.7419 19.7788 18.7419 20.7916V40.1662C18.7419 41.179 19.5706 42 20.5929 42H40.1492C41.1714 42 42.0001 41.179 42.0001 40.1662V20.7916C42.0001 19.7788 41.1714 18.9578 40.1492 18.9578Z" fill="#46194F"/>
<path d="M21.1851 0C22.3764 0.320076 23.174 1.20362 23.2851 2.44392L23.2111 16.2272C22.962 16.8607 22.0163 16.6573 21.9995 15.9738L21.9928 2.28054C21.9154 1.65039 21.2726 1.20695 20.6601 1.19695L2.32212 1.22029C1.70288 1.35699 1.28558 1.8171 1.21154 2.44392V20.4715C1.21827 21.0817 1.66587 21.7152 2.30192 21.7919H16.0495C17.0558 21.8552 16.9784 23.0955 15.9721 23.0755H2.46683C1.2149 22.9588 0.323077 22.1686 0 20.9883V2.00381C0.336538 0.976899 0.989423 0.333413 2.0226 0H21.1851Z" fill="#46194F"/>
<path d="M27.2496 34.1014H33.4116C33.664 34.1881 34.1957 36.3486 34.5121 36.6954C34.7409 36.9488 35.0405 36.9488 35.3198 36.7687C35.7606 36.4853 35.5318 36.0452 35.4039 35.6518C34.3808 32.4344 32.7957 28.6601 31.5001 25.4994C31.1063 24.5392 30.6924 23.4356 29.565 24.5825L25.1496 36.1553C25.089 36.8121 25.7587 37.1655 26.2299 36.6587C26.5462 36.3186 27.1217 34.1848 27.2462 34.1014H27.2496ZM27.8049 32.8078L30.3525 25.9995L32.9808 32.8078H27.8049Z" fill="white"/>
<path d="M27.7207 8.65538C27.9933 9.10882 28.9087 9.37222 28.9996 9.91902C29.0736 10.3625 28.6092 10.7125 28.1818 10.5625L25.2505 8.34197C25.1967 8.1586 25.1798 7.95855 25.2572 7.77851C25.3212 7.62514 27.5962 5.9114 27.889 5.74136C28.3231 5.4913 28.8515 5.39127 28.9827 6.01142C29.1308 6.71492 28.0572 6.95498 27.7207 7.4551H30.2683C30.8842 7.4551 32.126 8.02523 32.6476 8.38198C35.5082 10.3491 34.7678 13.5332 34.8217 16.5273C34.6971 17.0841 33.9063 17.1774 33.6606 16.6706C33.3914 14.1033 34.4077 11.156 31.9544 9.39222C31.5135 9.07548 30.477 8.65872 29.9486 8.65872H27.7241L27.7207 8.65538Z" fill="#46194F"/>
<path d="M14.7808 34.3682H12.2332C11.4726 34.3682 10.0726 33.6547 9.48704 33.1646C7.02022 31.1041 7.75724 28.13 7.6832 25.2927C7.80772 24.7359 8.59858 24.6426 8.84426 25.1493C9.11685 27.6866 8.11733 30.4939 10.4159 32.3244C10.8938 32.7045 11.9539 33.1646 12.5596 33.1646H14.7842C14.5116 32.7111 13.5962 32.4477 13.5053 31.9009C13.4313 31.4575 13.8957 31.1074 14.3231 31.2575L17.2544 33.478C17.3082 33.6614 17.325 33.8614 17.2476 34.0415C17.1837 34.1948 14.9087 35.9086 14.6159 36.0786C14.1818 36.3287 13.6534 36.4287 13.5221 35.8085C13.3741 35.105 14.4476 34.865 14.7842 34.3649L14.7808 34.3682Z" fill="#46194F"/>
<path d="M15.972 16.6206L13.8182 18.031C12.6369 18.031 11.7215 17.9843 11.0754 17.8876C9.95806 17.7242 9.09316 17.3975 8.48739 16.9074C7.72008 16.2939 7.33643 15.4137 7.33643 14.2667C7.33643 13.5699 7.44412 12.9431 7.6595 12.3863C7.8345 11.9295 8.08691 11.4994 8.41671 11.096C8.57489 10.9059 8.85421 10.6159 9.25133 10.2258C8.70614 9.95572 8.32921 9.72233 8.1172 9.52561C7.65277 9.09218 7.42056 8.54538 7.42056 7.88189C7.42056 7.28508 7.67296 6.70161 8.17777 6.12814C8.75662 5.47131 9.45662 5.14124 10.2811 5.14124C10.6513 5.14124 11.0417 5.24793 11.4557 5.46131C11.735 5.60134 12.0816 5.83473 12.5023 6.16148C11.947 6.16148 11.3749 6.19815 10.7893 6.2715C10.0355 6.36819 9.42296 6.50489 8.95854 6.68494C8.38979 6.90499 8.1071 7.17505 8.1071 7.49513C8.1071 7.83854 8.43354 8.16529 9.08643 8.47536C9.63835 8.73542 10.2609 8.9188 10.9609 9.02549C11.5297 8.72209 12.0816 8.46203 12.6201 8.24864C13.2225 8.01192 13.8451 7.81521 14.4946 7.6585L14.1379 8.97548C12.9566 9.43226 12.1052 9.77901 11.5835 10.0224C10.5268 10.5158 9.71912 11.0226 9.1571 11.5428C8.43691 12.2063 8.07681 12.9198 8.07681 13.6766C8.07681 14.4334 8.37633 15.0936 8.97873 15.5504C9.50037 15.9438 10.271 16.2239 11.2874 16.3872C12.0951 16.5173 13.1215 16.5806 14.3701 16.5806C14.6359 16.5806 14.9052 16.5806 15.171 16.5706C15.4369 16.5606 15.7061 16.5606 15.972 16.554V16.6306V16.6206Z" fill="#46194F"/>
</svg>
