<?xml version="1.0"?>
<svg width="24" height="24" xmlns="http://www.w3.org/2000/svg" xmlns:svg="http://www.w3.org/2000/svg">
 <title>Honda icon</title>
 <g class="layer">
  <title>Layer 1</title>
  <path d="m17.81,10.14c-0.15,-1.5 -1.15,-1.82 -2.03,-1.96c-0.44,-0.08 -1.23,-0.14 -1.74,-0.16c-0.44,-0.03 -1.48,-0.04 -1.79,-0.04c-0.31,0 -1.35,0.01 -1.79,0.04c-0.5,0.02 -1.29,0.08 -1.73,0.16c-0.88,0.14 -1.88,0.46 -2.03,1.96c-0.04,0.41 -0.05,0.94 -0.04,1.52c0.01,0.95 0.09,1.59 0.14,2.03c0.03,0.31 0.16,1.22 0.32,1.7c0.22,0.65 0.42,0.84 0.66,1.04c0.44,0.35 1.15,0.47 1.3,0.49c0.81,0.14 2.45,0.17 3.17,0.17c0.72,0 2.36,-0.02 3.16,-0.17c0.15,-0.03 0.87,-0.14 1.3,-0.49c0.24,-0.2 0.44,-0.39 0.67,-1.04c0.16,-0.48 0.29,-1.39 0.32,-1.7c0.05,-0.45 0.13,-1.09 0.14,-2.03c0.02,-0.57 0,-1.11 -0.04,-1.52m-0.55,2.52c-0.09,1.2 -0.2,1.91 -0.35,2.44c-0.14,0.46 -0.3,0.76 -0.54,0.98c-0.41,0.37 -0.97,0.45 -1.29,0.49c-0.7,0.11 -1.89,0.14 -2.82,0.14c-0.94,0 -2.12,-0.04 -2.83,-0.14c-0.33,-0.05 -0.88,-0.13 -1.29,-0.49c-0.24,-0.22 -0.41,-0.52 -0.54,-0.98c-0.15,-0.52 -0.26,-1.24 -0.35,-2.44c-0.05,-0.72 -0.04,-1.89 0.04,-2.52c0.12,-0.94 0.58,-1.41 1.58,-1.59c0.47,-0.08 1.09,-0.14 1.68,-0.17c0.48,-0.03 1.26,-0.05 1.7,-0.04c0.43,0 1.22,0.01 1.69,0.04c0.6,0.03 1.22,0.09 1.68,0.17c1,0.18 1.47,0.65 1.58,1.59c0.09,0.63 0.11,1.8 0.05,2.52m-2.43,-3.92c-0.26,1.15 -0.36,1.68 -0.57,2.51c-0.2,0.8 -0.36,1.54 -0.63,1.9c-0.27,0.36 -0.63,0.44 -0.88,0.47c-0.13,0.01 -0.22,0.02 -0.49,0.02c-0.28,0 -0.37,-0.01 -0.5,-0.02c-0.25,-0.03 -0.62,-0.11 -0.88,-0.47c-0.27,-0.36 -0.42,-1.1 -0.63,-1.9c-0.22,-0.83 -0.32,-1.36 -0.57,-2.51c0,0 -0.26,0.01 -0.37,0.02c-0.15,0.01 -0.28,0.02 -0.41,0.04c0,0 0.15,2.36 0.21,3.36c0.07,1.05 0.2,2.83 0.31,4.17c0,0 0.21,0.03 0.57,0.06c0.38,0.02 0.55,0.02 0.55,0.02c0.15,-0.59 0.35,-1.41 0.56,-1.76c0.17,-0.28 0.45,-0.31 0.6,-0.33c0.24,-0.03 0.45,-0.04 0.55,-0.04c0.09,0 0.29,0 0.54,0.04c0.15,0.02 0.43,0.05 0.61,0.33c0.22,0.35 0.41,1.17 0.56,1.76c0,0 0.17,0 0.55,-0.02a5.3,5.3 0 0 0 0.57,-0.06c0.12,-1.34 0.24,-3.11 0.31,-4.17c0.07,-1 0.21,-3.36 0.21,-3.36c-0.13,-0.02 -0.25,-0.03 -0.41,-0.04c-0.11,-0.01 -0.36,-0.02 -0.36,-0.02z" id="svg_2"/>
 </g>
</svg>