<?xml version="1.0"?>
<svg width="24" height="24" xmlns="http://www.w3.org/2000/svg" xmlns:svg="http://www.w3.org/2000/svg">
 <title>Honda icon</title>
 <g class="layer">
  <title>Layer 1</title>
  <path d="m18.53,9.15c-0.18,-1.73 -1.32,-2.09 -2.33,-2.25c-0.51,-0.09 -1.41,-0.16 -2,-0.18c-0.5,-0.03 -1.7,-0.05 -2.05,-0.05c-0.35,0 -1.55,0.02 -2.06,0.05c-0.57,0.02 -1.49,0.1 -1.99,0.18c-1.01,0.17 -2.16,0.53 -2.34,2.25c-0.04,0.47 -0.05,1.08 -0.05,1.74c0.02,1.09 0.11,1.82 0.16,2.34c0.04,0.35 0.18,1.41 0.37,1.95c0.26,0.75 0.49,0.97 0.76,1.19c0.5,0.41 1.32,0.54 1.5,0.57c0.93,0.16 2.81,0.19 3.64,0.19c0.83,0 2.71,-0.03 3.64,-0.19c0.18,-0.03 1,-0.16 1.5,-0.57c0.27,-0.23 0.51,-0.45 0.77,-1.19c0.19,-0.55 0.33,-1.6 0.37,-1.95c0.05,-0.51 0.15,-1.25 0.16,-2.34c0.02,-0.66 0.01,-1.27 -0.04,-1.74m-0.63,2.9c-0.1,1.38 -0.23,2.2 -0.4,2.8c-0.16,0.53 -0.34,0.87 -0.62,1.12c-0.47,0.42 -1.11,0.51 -1.49,0.57c-0.81,0.12 -2.17,0.16 -3.25,0.16c-1.08,0 -2.44,-0.04 -3.25,-0.16c-0.38,-0.05 -1.01,-0.14 -1.48,-0.57c-0.28,-0.25 -0.47,-0.6 -0.62,-1.12c-0.17,-0.6 -0.3,-1.42 -0.4,-2.8c-0.06,-0.83 -0.05,-2.18 0.04,-2.9c0.14,-1.08 0.67,-1.62 1.81,-1.82c0.54,-0.1 1.26,-0.17 1.94,-0.2c0.55,-0.04 1.45,-0.05 1.95,-0.05c0.5,-0.01 1.41,0.02 1.95,0.05c0.69,0.03 1.4,0.1 1.94,0.2c1.15,0.2 1.68,0.75 1.82,1.82c0.11,0.72 0.12,2.07 0.06,2.9m-2.79,-4.5c-0.3,1.32 -0.41,1.93 -0.65,2.88c-0.23,0.92 -0.41,1.77 -0.72,2.18c-0.31,0.41 -0.73,0.5 -1.01,0.54c-0.15,0.02 -0.26,0.02 -0.57,0.03c-0.32,0 -0.43,-0.01 -0.58,-0.03c-0.28,-0.03 -0.71,-0.12 -1.01,-0.54c-0.31,-0.41 -0.49,-1.27 -0.72,-2.18c-0.25,-0.95 -0.36,-1.56 -0.66,-2.88c0,0 -0.3,0.01 -0.43,0.02c-0.18,0.01 -0.32,0.03 -0.47,0.05c0,0 0.17,2.71 0.25,3.86c0.08,1.21 0.23,3.25 0.36,4.79c0,0 0.25,0.04 0.65,0.06c0.43,0.03 0.63,0.03 0.63,0.03c0.18,-0.68 0.4,-1.62 0.65,-2.02c0.2,-0.33 0.51,-0.36 0.69,-0.38c0.28,-0.04 0.51,-0.04 0.63,-0.04c0.11,-0.01 0.34,0 0.62,0.04c0.18,0.03 0.49,0.06 0.7,0.38c0.25,0.4 0.47,1.34 0.64,2.02c0,0 0.19,-0.01 0.63,-0.03a6.09,6.09 0 0 0 0.65,-0.06c0.13,-1.54 0.28,-3.58 0.36,-4.79c0.08,-1.15 0.25,-3.86 0.25,-3.86c-0.15,-0.02 -0.29,-0.04 -0.47,-0.05c-0.12,-0.01 -0.42,-0.02 -0.42,-0.02z" id="svg_1"/>
 </g>
</svg>